<svg id="レイヤー_1" data-name="レイヤー 1" xmlns="http://www.w3.org/2000/svg" viewBox="0 0 377.94 157.12"><defs><style>.cls-1{fill:#231815;}.cls-2{fill:#005ead;}.cls-3{fill:#fac03d;}.cls-4{fill:#db5443;}</style></defs><title>athena</title><path class="cls-1" d="M237.58,82.57h39.55a19.66,19.66,0,0,0,.7-5.39c0-6.59-2.15-12-6.39-15.92C267.06,57.12,260.91,55,253.15,55A24.49,24.49,0,0,0,235.79,62c-5.45,5.14-8.21,12.08-8.21,20.62a31.16,31.16,0,0,0,1,8.16,23.62,23.62,0,0,0,7,11.53A24.91,24.91,0,0,0,253,108.9a39.31,39.31,0,0,0,13-2.05,18.94,18.94,0,0,0,6.66-3.5l-3.82-6.22A21.74,21.74,0,0,1,255,101.64a17.44,17.44,0,0,1-12.27-4.4,15.94,15.94,0,0,1-4.14-6.34,23.58,23.58,0,0,1-1.27-8v-.3Zm-.05-6.5a14.72,14.72,0,0,1,4.9-9.7,16.12,16.12,0,0,1,11.18-4.09c4.75,0,8.55,1.42,11.31,4.21a13.18,13.18,0,0,1,3.79,9.61v.29H237.5Z"/><path class="cls-1" d="M158.92,98.74c-1.4-1.69-2.17-4.28-2.35-7.92,0-.49,0-1,0-1.68V62.77h15.16V56H156.53V44.51h-9.18V56h-7.62v6.77h7.62V92.86a16,16,0,0,0,4.4,11.52,15.53,15.53,0,0,0,10.86,4.52c4.68.21,7.62-.54,11.58-1.49V100a19.06,19.06,0,0,1-7.46,1.67c-3.56,0-6.19-1-7.82-2.9"/><path class="cls-1" d="M376.19,99.81c-2.09-.28-2.58-.72-2.58-4.54V76.44c0-7.43-1.81-12.92-5.38-16.31S358.91,55,351,55a31.07,31.07,0,0,0-9.34,1.56,25.93,25.93,0,0,0-7.64,4.06l4.08,6.65c3.33-3,8-4.52,14-4.52,8.14,0,12.27,4.39,12.27,13v.4l-.41-.13a24.84,24.84,0,0,0-6.91-1.25c-8.13-.27-13.74,1.84-18.57,5.47-3.94,3-6.29,6.51-7,10.55a16.52,16.52,0,0,0-.22,2.71,14.59,14.59,0,0,0,4.65,11,16.82,16.82,0,0,0,11.08,4.38c7.23.29,15-3.11,17.75-6.91l.35-.42.18.52a8.86,8.86,0,0,0,4.08,5.17c1.88,1,4.75,1.55,8.51,1.58V100c-.47-.1-1.36-.16-1.75-.21M364.43,82.42v12.8l-.07.08c-3.86,4.53-8.36,6.83-13.37,6.83-3.74,0-6.51-.83-8.25-2.49-4-3.81-1.36-10-1.36-10a12.88,12.88,0,0,1,4-5.16c3.73-2.64,7.24-3.2,12.24-3.28a35.45,35.45,0,0,1,6.56,1l.24,0Z"/><path class="cls-1" d="M137,90.91S116.27,39.2,114.91,35.7h-2.32c-1.45,3.44-22.72,55.22-22.72,55.22l-7.17,17H93.59l5.48-15,.08-.2h28.53l.07.2,5.14,15h10.77Zm-12.5-4.77H101.66l.15-.39,11.7-31.61.3-.81.28.82,10.72,31.61.13.38Z"/><path class="cls-1" d="M317,90.81v17.11h9.18V75.7c0-13.91-5.84-20.68-17.84-20.68-7.17,0-12.4,2.56-15.56,7.6l-.54.87,0-7.49H283v51.92h9.19V69.1l0-.08a15.76,15.76,0,0,1,5.72-4.8,15.59,15.59,0,0,1,7.16-1.94c4.24,0,7.31,1.18,9.11,3.5S317,72.06,317,77.67Z"/><path class="cls-1" d="M213.21,107.92h9.19V75.21c0-6.24-1.66-11.22-4.93-14.8S209.7,55,204,55A21.35,21.35,0,0,0,195.1,57a14.05,14.05,0,0,0-6.16,4.69l-.56.84v-28H179.2v73.44h9.18V69.09l.05-.07A16.67,16.67,0,0,1,194,64.33a15.08,15.08,0,0,1,7.32-2c3.76,0,6.71,1.17,8.79,3.48s3.11,5.48,3.11,9.45v32.71Z"/><path class="cls-1" d="M160.22,122.84l-1.72,2.34a5.45,5.45,0,0,0-1.91-1,8.23,8.23,0,0,0-2.64-.45,5.74,5.74,0,0,0-4.53,1.91,7.58,7.58,0,0,0-1.67,5.19,6.87,6.87,0,0,0,1.71,5,6.41,6.41,0,0,0,4.74,1.71,8,8,0,0,0,4.75-1.73l1.39,2.8a13.14,13.14,0,0,1-7,1.73,9.16,9.16,0,0,1-6.66-2.57,9.33,9.33,0,0,1-2.64-7,9.7,9.7,0,0,1,2.74-7.19,10.9,10.9,0,0,1,10.79-2.09,9.34,9.34,0,0,1,2.63,1.26"/><path class="cls-1" d="M181.93,134.68V114.21h3.49v19.91a3.12,3.12,0,0,0,.91,2.38,3.36,3.36,0,0,0,2.39.85v3c-4.45.28-6.79-1.89-6.79-5.65"/><path class="cls-1" d="M213.8,114.23a2.07,2.07,0,0,1,1.53.62,1.86,1.86,0,0,1,.65,1.42,2,2,0,0,1-.65,1.48,2.27,2.27,0,0,1-3.05,0,2,2,0,0,1-.63-1.48,1.94,1.94,0,0,1,.63-1.45,2.15,2.15,0,0,1,1.52-.59m-1.7,25.82V124.11h-2.71v-2.79h6.2v18.73H212.1"/><path class="cls-1" d="M280.33,114.23a2.07,2.07,0,0,1,1.53.62,1.86,1.86,0,0,1,.65,1.42,2,2,0,0,1-.65,1.48,2.17,2.17,0,0,1-1.53.59,2.2,2.2,0,0,1-1.52-.59,2,2,0,0,1-.62-1.48,2,2,0,0,1,.62-1.45,2.15,2.15,0,0,1,1.52-.59m-1.7,25.82V124.11h-2.71v-2.79h6.2v18.73h-3.49"/><path class="cls-1" d="M250.92,140.05v-10.9a6.9,6.9,0,0,0-1-4.18,3.78,3.78,0,0,0-3.17-1.21,5.34,5.34,0,0,0-2.5.69,5.4,5.4,0,0,0-2,1.67v13.93h-3.5V121.32h3.49v2.41c1.14-1.85,3-2.76,5.65-2.76q6.47,0,6.46,7.48v11.6h-3.48"/><path class="cls-1" d="M320.26,122.84l-1.73,2.34a5.32,5.32,0,0,0-1.89-1,8.37,8.37,0,0,0-2.64-.45,5.75,5.75,0,0,0-4.54,1.91,7.63,7.63,0,0,0-1.67,5.19,6.83,6.83,0,0,0,1.72,5,6.38,6.38,0,0,0,4.73,1.71,8,8,0,0,0,4.75-1.73l1.38,2.8a13.11,13.11,0,0,1-7,1.73,9.16,9.16,0,0,1-6.67-2.57,9.29,9.29,0,0,1-2.63-7,9.73,9.73,0,0,1,2.72-7.19,10.91,10.91,0,0,1,10.8-2.09,9.34,9.34,0,0,1,2.63,1.26"/><path class="cls-2" d="M37.36,0C47,24.08,12.88,73.86,12.88,73.86h0C6.18,84.62-14.56,123,17.08,147.44-7.87,125,25.33,74.36,25.33,74.36S58.16,27.15,37.36,0"/><path class="cls-3" d="M57.31,4.84C67,28.92,32.82,78.7,32.82,78.7h0C26.12,89.46,5.38,127.81,37,152.29c-25-22.48,8.25-73.09,8.25-73.09S78.1,32,57.31,4.84"/><path class="cls-4" d="M77.26,9.68c9.66,24.08-24.49,73.86-24.49,73.86h0C46.07,94.3,25.33,132.65,57,157.12,32,134.65,65.23,84,65.23,84s32.82-47.21,12-74.36"/></svg>