<svg version="1.1" id="레이어_1" xmlns="http://www.w3.org/2000/svg" x="0" y="0" viewBox="0 0 320.7 68.9" xml:space="preserve"><style>.st0{fill:#00316e}.st1{fill:#eb6ea5}</style><path class="st0" d="M55.9 34c-3-4.2-7.8-5.3-12.1-5.1-8.2.3-16.5 6.1-16.5 19.7 0 12.5 6.8 20.3 17.8 20.3 4.9 0 9-1.9 11.2-5.2v4.2h8.6V9.2h-9V34zm-9.6 2.2c6.2 0 9.7 4.7 9.7 12.7 0 5.9-2.5 12.7-9.9 12.7-6.8 0-9.9-6.2-9.9-12.3.1-3.1.8-13.1 10.1-13.1z"/><path class="st1" d="M17.6 23.8c1 1.1 3.9 2.7 5.6 2.4 2.3-.5 2.6-2.8 2-4.1 1.9-3-1.6-3.4-1.9-5.1.3-.3.9-.5 1.7-.6 2.8 0 6.3-1 5.6-3.6-.1-.4-.4-.7-.9-1l-.4-.5c-.2-.1-.4 0-.6-.2v-.6l-.7-.2c-.3-.5-.7-.8-1.7-1.1-2.2-.3-2.6 1.6-3.8 2.5-.7.4-1.6-.2-1.7-.5l-.1-.7c.1-.3.2-.6.5-.9.9-1.2.7-1.9 0-3.1-.3-.5-.3-1.3-.6-1.7-.2-.3-.5-.4-.6-.7-.3-.4-.3-.9-.6-1.3-.2 0-.4.2-.6 0-.1-.2 0-.4-.2-.6-.5-.7-1.6-1.3-2.6-1.1-1.8.4-3.4 3.1-3.5 4.7 0 .7.2 1.2.3 1.8.5 1.3 1.1 2 .6 2.9l-.1.1c-.2 0-.5.1-.9-.3-.9-.8-1.7-1.7-3.1-1.7l-4.4.3c-.9.3-1.2.9-1.6 1.4s-.9.9-.5 1.6c-.8.1-.2.4-1 .8-1.3.6-1.4 2.1-.7 2.8.9.8 2.5 1 3.6 1.6 1.5.6 3.1.8 5 .3 0 0 1-.3.9.6-.1 1-1.9.8-2.6 1.2-1.4 1-1.5 2.1-2.3 3.3-.3.6-.1 1.5.4 2.1.9.8 2.3.8 3.7 1.2l.7.4c1.2-.1.9 1 1.8.8.5-.1.8-1.1 1.1-1.5l1.7-1.3c1-.8 1.4-1.4 1.5-1.8s0-.9 0-1.2c-.1-.2-.1-.5-.4-.4-.3.1-1 .5-1.9.6s-1-.7-.9-1.1c0-.4 0-.7-.2-.8-.2-.1-.1-.3 0-.4s-.1-.2-.3-.4c-.2-.2-.1-.3-.1-.6-.3-.1-.8-.5-.8-.8s.6-.8.7-1.2c.2-.4.3-.6.2-1.1-.2-.7-.5-1.4-.5-2.1 0-.7.4-1.5.4-1.5s.3 2.5 1.5 4.2c1.3 1.8 3.7 2.9 4.2 3.7.9.7 1.4 2.6-.9 4.5z"/><path class="st0" d="M11.9 29.9h9v38h-9zM99.3 59.8c-3.5 4.6-9.5 7.2-18.1 7.9L80 63c2.7-.2 5.3-.7 7.8-1.6 2.5-.9 4.5-1.9 5.8-3.1h-12v-4.5h14.5v-2.5H80.4V47H96v-2.2H82.6v-4H96v-2.1H81v-4.2h8.1l-1.8-3.6 5.5-1.1 2.3 4.7h7.6l2.5-4.7 5.9 1.3-2.3 3.4h8.7v4.2H102v2.1h13.8v4H102V47h16.4v4.2h-16.3v2.5h15.4v4.5h-12.9a28.8 28.8 0 0014.3 4.6l-2.4 4.8c-8-.9-13.7-3.5-17.2-7.8zM150.1 66h-16.9v1.4h-5.8V55.8l-3.9 1.3-2.1-4.5c3.3-.9 6.7-2.3 10.3-4.2a24 24 0 007.4-5.5h5.2c1.4 1.7 3.8 3.5 7 5.3s6.9 3 11.1 3.7l-2.7 5-3.5-1.1v11.5h-5.8V66h-.3zm-11.2-26.3a26.2 26.2 0 01-6.5 5.1 23.4 23.4 0 01-7 3.3L123 44a31.3 31.3 0 0011.2-6.6H128v4.2h-4.8v-8.3h15.3v-3.1h5.9v3.1h16.1v8.2h-4.8v-4.1h-6.9a31 31 0 005.5 3.5c2.4 1.3 4.4 2.1 6.1 2.5l-3 4.6a36.4 36.4 0 01-13.1-8.3l3.1-2.3h-12.5l4 2.3zm-5.7 21.9h16.9v-4.5h-16.9v4.5zm1.1-8.8h14.9a30.3 30.3 0 01-7.5-5.1 36.3 36.3 0 01-7.4 5.1zM195.2 34.9l-.2 3.9a32 32 0 01-6.3 18.6 31.3 31.3 0 01-16.8 10.2l-1.6-5.5a23 23 0 0012.4-7.1c3.1-3.5 5.2-8.4 6.2-14.8H179c-2.8 5.6-6.4 10-11 13.3l-3.6-4.3a33.4 33.4 0 0012.1-19l5.8.7-1.1 4h14zM206.5 54.8h-5.7V32.3h5.7v22.5zm17.3-6.2c0 11.6-6.2 17.9-18.5 18.9l-1.9-5.4c5.3-.6 9.1-2 11.4-4.2 2.2-2.2 3.3-5.6 3.3-10V31.6h5.7v17zM259.4 65.2h-30.6v-5.8h30.6v5.8zm-1.9-23.4h-26.4v-5.6h26.4v5.6zM270.4 53.1l-4.8 1.6a73 73 0 00-4.4-13.5l4.4-1.8 1.8 4.6c.7 1.6 1.6 4.7 3 9.1zm16.8-13.9c-.6 8.6-2.5 15.2-5.8 19.9s-8 7.5-14.2 8.6l-1.9-4.3c5.4-1 9.5-3.4 12.1-7.4 2.7-3.9 4.3-9.7 4.8-17.4l5 .6zm-9.1 11.9l-4.5 1.8c-.9-4.2-2.4-8.7-4.4-13.6l4.1-1.8 2.2 5.3 2.6 8.3zM320.9 34.9l-.2 3.9a32 32 0 01-6.3 18.6 31.3 31.3 0 01-16.8 10.2l-1.6-5.5c5.2-1.2 9.3-3.6 12.4-7.1s5.2-8.4 6.2-14.8h-9.9c-2.8 5.6-6.4 10-11 13.3l-3.6-4.3a33.4 33.4 0 0012.1-19l5.8.7-1.1 4h14z"/><g><path class="st1" d="M87.5 19.3c-1.1 1.9-3.3 3-6.5 3.3l-.3-.9c1.5-.2 2.7-.5 3.6-1s1.6-1.1 2-1.8h-5.2V18h5.7v-1.5h-6.2v-.9h6.2v-1.5h-5.2v-.9h5.2v-1.4h-5.7V11h3.5l-.8-1.4 1.2-.3.9 1.6h3.3l.8-1.6 1.2.3-.9 1.4H94v.9h-6v1.4h5.3v.9H88v1.5h6.4v.9H88V18h6.1v.9h-5.6c1.1 1.4 3.1 2.3 5.9 2.8l-.6 1c-1.3-.2-2.5-.6-3.7-1.2-1.1-.7-2-1.4-2.6-2.2zM109.4 18.3a16 16 0 01-6.8-3.7c-.7.7-1.7 1.4-2.9 2.1-1.3.7-2.6 1.2-4 1.6l-.4-.8c1.3-.4 2.5-.9 3.8-1.6s2.2-1.4 2.7-2h1.6a15.6 15.6 0 006.6 3.4l-.6 1zm-1.2-5.4v-1.7H97.1V13H96v-2.6h5.9V9.2h1.2v1.2h6.1v2.5h-1zm-11.5 2.2l-.5-.8 2.2-1c.8-.5 1.5-.9 1.9-1.4l1 .5c-.5.5-1.2 1-2.2 1.5a9 9 0 01-2.4 1.2zm9.7 6.9h-7.7v.5h-1.1v-4.7h10v4.7h-1.2V22zm-7.6-.8h7.7v-2.5h-7.7v2.5zm9.5-6.2a9 9 0 01-2.4-1.2c-.9-.5-1.6-1-2.1-1.5l.9-.5a13.3 13.3 0 004.2 2.3l-.6.9zM111.6 22.6l-.6-.7c1.8-1 3.2-2.5 4.3-4.6l-2.8-2.1a14 14 0 01-1.2 1.8l-.8-.5c.8-1.2 1.5-2.4 2.1-3.8.5-1.4.9-2.5 1.1-3.6l1.1.1-.4 1.8h3.7c0 2.7-.7 5.1-1.9 7.2a12 12 0 01-4.6 4.4zm4.1-6.2c.6-1.5.9-3 .9-4.3h-2.7l-1.1 2.5c.9.4 1.9 1 2.9 1.8zm4.3 6.3V15a8.9 8.9 0 01-1.7-1.8l.7-.7 1 1.1V9.2h1.2v5.5a20 20 0 003.8 2.4l-.7 1c-1-.5-2.1-1.2-3.2-2.1v6.7H120zM126.3 19.6l-.7-.6a28.6 28.6 0 002.6-4.9H126v-.9h2.4v-2.3l-2.2.4-.2-.8c2-.3 3.6-.7 4.8-1.1l.4.9-1.8.5v2.5h1.8v.9h-1.8v1c.4.5 1 1.1 2 1.9l-.7.8-1.3-1.4v6.2h-1.1v-6.4c-.6 1.4-1.4 2.5-2 3.3zm5.4-.3l-.1-.9 5.5-.6V9.3h1.2v8.3l1.4-.2v1l-1.4.2v3.9h-1.2v-3.8l-5.4.6zm2.8-2.3l-2.5-2.9.8-.7c1.3 1.3 2.2 2.2 2.7 2.9l-1 .7zm.9-3.6l-2.6-2.9.8-.7a29 29 0 012.6 2.9l-.8.7zM158 19.3c-1.1 1.9-3.3 3-6.5 3.3l-.3-.9c1.5-.2 2.7-.5 3.6-1a5 5 0 002-1.8h-5.2V18h5.7v-1.5h-6.2v-.9h6.2v-1.5h-5.2v-.9h5.2v-1.4h-5.7V11h3.5l-.8-1.4 1.1-.2.9 1.6h3.3l.9-1.7 1.2.3-.9 1.4h3.7v.9h-6v1.4h5.3v.9h-5.3v1.5h6.4v.9h-6.4V18h6.1v.9H159c1.1 1.4 3.1 2.3 5.9 2.8l-.6 1c-1.3-.2-2.5-.6-3.7-1.2-1.1-.7-2-1.4-2.6-2.2zM180 18.3a16 16 0 01-6.8-3.7c-.7.7-1.7 1.4-2.9 2.1-1.3.7-2.6 1.2-4 1.6l-.4-.8c1.3-.4 2.5-.9 3.8-1.6s2.2-1.4 2.7-2h1.6a15.6 15.6 0 006.6 3.4l-.6 1zm-1.3-5.4v-1.7h-11.1V13h-1.1v-2.6h5.9V9.2h1.2v1.2h6.1v2.5h-1zm-11.4 2.2l-.5-.8 2.2-1c.8-.5 1.5-.9 1.9-1.4l1 .5c-.5.5-1.2 1-2.2 1.5l-2.4 1.2zM177 22h-7.7v.5h-1.1v-4.7h10v4.7H177V22zm-7.7-.8h7.7v-2.5h-7.7v2.5zm9.6-6.2a9 9 0 01-2.4-1.2c-.9-.5-1.6-1-2.1-1.5l.9-.5a13.3 13.3 0 004.2 2.3l-.6.9zM190 19.7a16 16 0 004.8 1.8l-.6 1c-2.1-.5-3.8-1.2-5.2-2.1-1.4 1-3.1 1.7-5.1 2.2l-.4-.9c1.7-.4 3.2-1.1 4.6-2a10 10 0 01-2-2.1 6 6 0 01-1-2.2h-1.4c0 3-.7 5.3-2.2 7.1l-.7-.5c.6-.8 1.1-1.9 1.4-3 .3-1.2.4-2.3.4-3.4V11h5.3V9.2h1.2V11h5.7l.3.3-1.3 2.6-1-.2.8-1.8h-4.5v2.6h4l.3.2a10 10 0 01-3.4 5zm-6.2-5.1h4.2V12h-4.2v2.6zm5.3 4.5a9.8 9.8 0 002.8-3.6h-5.6a7.4 7.4 0 002.8 3.6zM209.3 12.4v-.9h-5.8v.6l3.4-.1v.5l-3.4.1v.1c0 .2.1.4.3.4l1.6.1h1.4l.9-.1.2-.2.1-.7.8.1v.8l-.1.4-.4.3-1.1.1h-1.8c-1.3 0-2.2-.1-2.5-.2-.3-.1-.5-.3-.5-.7v-.3l-3.1.1v-.6l3.1-.1v-.6h-4V15c0 1.4-.2 2.9-.5 4.2a8.3 8.3 0 01-1.2 3.1l-.8-.4c.5-.9.8-1.9 1.1-3.1l.3-3.6v-4.3h5V9.1h1.1v.5h5.2v.6h-5.2v.6h6.6v1.6h-.7zm-9.9 4.8v-2.8h10.2v2.8h-10.2zm8.7 3.7h-7.2v1.8h-1.1v-4.8h9.5v3.7c0 .3-.1.5-.3.7s-.5.3-.9.3h-1.7l-.1-.9h1.4c.4 0 .6-.2.6-.5v-.3h-.2zm-7.7-5.3h3.6V15h-3.6v.6zm3.6.5h-3.6v.6h3.6v-.6zm4.1 3v-.7h-7.2v.7h7.2zm-7.2 1.2h7.2v-.7h-7.2v.7zm4.1-4.7h3.6V15H205v.6zm3.6.5H205v.6h3.6v-.6zM211.9 19.6l-.7-.6a28.6 28.6 0 002.6-4.9h-2.2v-.9h2.4v-2.3l-2.2.4-.2-.8c2-.3 3.6-.7 4.8-1.1l.4.9-1.8.5v2.5h1.8v.9H215v1c.4.5 1 1.1 2 1.9l-.7.8-1.3-1.4v6.2h-1.1v-6.4c-.6 1.4-1.4 2.5-2 3.3zm5.4-.3l-.1-.9 5.5-.6V9.3h1.2v8.3l1.4-.2v1l-1.4.2v3.9h-1.2v-3.8l-5.4.6zm2.8-2.3l-2.5-2.9.8-.7c1.3 1.3 2.2 2.2 2.7 2.9l-1 .7zm1-3.6l-2.6-2.9.8-.7a29 29 0 012.6 2.9l-.8.7z"/></g><path class="st1" d="M146.6 15.8c0 .8-.7 1.5-1.5 1.5s-1.5-.7-1.5-1.5.7-1.5 1.5-1.5c.8.1 1.5.7 1.5 1.5z"/></svg>