<svg id="logo" xmlns="http://www.w3.org/2000/svg" viewBox="0 0 528.73 51.43"><defs><style>.cls-1{fill:#dc515a;}.cls-2{fill:#3e3a39;}</style></defs><title>chiba</title><path class="cls-1" d="M26.75,40.28A17.19,17.19,0,0,1,33.82,17,17.72,17.72,0,0,1,44.14,14.9a19.1,19.1,0,0,0-13,2,18.59,18.59,0,0,0-7.64,25.15,18.57,18.57,0,0,0,25.34,7,19,19,0,0,0,8.64-9.9,17.66,17.66,0,0,1-7.3,7.59A17.19,17.19,0,0,1,26.75,40.28Z"/><path class="cls-1" d="M5.47,40.28A17.19,17.19,0,0,1,12.54,17,17.74,17.74,0,0,1,22.86,14.9a19.12,19.12,0,0,0-13,2A18.59,18.59,0,0,0,2.23,42.07a18.57,18.57,0,0,0,25.34,7,19.07,19.07,0,0,0,8.65-9.9,17.74,17.74,0,0,1-7.31,7.59A17.19,17.19,0,0,1,5.47,40.28Z"/><path class="cls-1" d="M44.06,11.15A17.19,17.19,0,0,1,37,34.4a17.66,17.66,0,0,1-10.32,2.13,19,19,0,0,0,13-2A18.59,18.59,0,0,0,47.3,9.36,18.59,18.59,0,0,0,22,2.4a19.07,19.07,0,0,0-8.65,9.9,17.74,17.74,0,0,1,7.31-7.59A17.19,17.19,0,0,1,44.06,11.15Z"/><path class="cls-2" d="M68.63,24.64l-1.36.28V23.28l1.36.28H84.34V11.48c-5.16.48-10.59.76-14.75.84l-.08-.68c12.59-1.2,20.95-2.55,26.7-4.31L98.29,9c.2.16.28.28.28.4a.62.62,0,0,1-.64.52,3.27,3.27,0,0,1-1.28-.36c-5.27,1-8,1.43-10,1.63V23.56h16l1.36-.28v1.64l-1.36-.28h-16V43.87H84.34V24.64Z"/><path class="cls-2" d="M122.79,35.71c-3.72,3.24-10,6-17,7.64l-.12-.52a43.31,43.31,0,0,0,15.68-8.12l.32-.28H108l-1.36.28V33.19l1.36.28h14.76v-4h-11V19.32h-4.24l-1.39.28V18.08l1.39.28h4.24V14.52h2c.52,0,.72.12.72.36s-.08.28-.64.68v2.8h8.84V14.52h2c.48,0,.68.12.68.36s0,.28-.63.68v2.8h9V14.52h2c.52,0,.72.08.72.36s-.08.28-.64.68v2.8h4.76l1.36-.28V19.6l-1.36-.28h-4.76V25H122.67V19.32h-8.84v9.16H138l1.36-.28v1.51L138,29.43H124.79v4H140l1.4-.28v1.52l-1.4-.28H125.34l.32.28c3.48,2.84,10.48,5.44,16.63,6.2A10.16,10.16,0,0,0,141.18,43c-5.4-.68-13.16-4.68-16.39-8.48v9.56h-2Zm17.51-25,1.36-.29v1.52l-1.36-.28h-8.68V15h-2.08V11.64H118.27V15h-2.08V11.64h-8.4l-1.36.28V10.4l1.36.29h8.4V7.33h2c.48,0,.68.08.68.36s-.12.32-.64.68v2.32h11.27V7.33h2c.48,0,.68.12.68.36s-.08.32-.64.68v2.32ZM124.71,24h9V19.32h-9Z"/><path class="cls-2" d="M162.23,43.87H160V31.19H147.2v2.6H145V15.32h15V7.57h2.16c.48,0,.68.12.68.36s-.08.28-.64.68v6.71h15.43V33.55h-2.2V31.19H162.23ZM160,30.23V16.28H147.2v14Zm15.43,0V16.28H162.23v14Z"/><path class="cls-2" d="M181.89,28.6l-1.36.28V27.36l1.36.28h3.51V14.8h12.08l.08-3.16V7.57h2.16c.48,0,.68.12.68.36s-.08.28-.64.68v3c0,1.28,0,2.28,0,2.88a.59.59,0,0,0,0,.28h12.23V27.64h3.52l1.36-.28v1.52l-1.36-.28H199.16l.12.24,0,.11C202,33.83,209.35,39,217,41.23a17.08,17.08,0,0,0-1.64,2.32c-7.72-3-14.15-8.6-16.59-14.4l-.16-.4a1.84,1.84,0,0,0-.16.52c-2.2,7.32-8.56,12.48-17.87,14.56l-.2-.44c7.83-2.44,13.87-8,15.91-14.79Zm14.71-1.2c.56-2.6.68-4.52.88-11.64H187.6V27.64h8.92Zm13.11.24V15.76h-10c-.24,7.56-.4,9.88-.84,11.88Z"/><path class="cls-2" d="M237.6,32.59c4.12,4.84,10.12,7.8,17.67,8.68a14.2,14.2,0,0,0-1.2,2.32,25.06,25.06,0,0,1-17-10.6l-.12.28,0,.12c-1.32,3.72-4.95,7-9.71,8.72a40.23,40.23,0,0,1-8.48,1.72l-.12-.56c8.24-1.44,14.56-5.48,16.23-10.44l.08-.24H220.69l-1.36.28V31.35l1.36.28h14.52a28.75,28.75,0,0,0,.47-4.71h2c.48,0,.68.12.68.36s-.12.32-.64.68a20.46,20.46,0,0,1-.32,3.67h15.83l1.36-.28v1.52l-1.36-.28Zm.24-14.07h11.52l1.36-.28v1.52l-1.36-.28H237.84V24.6h15.35l1.4-.28v1.52l-1.4-.28H220.73l-1.4.28V24.32l1.4.28h15V19.48H224.57l-1.36.28V18.24l1.36.28h11.11V13.68h-14l-1.36.28V12.44l1.36.28h9.36a33.75,33.75,0,0,0-2.92-5.15l.32-.24a19.45,19.45,0,0,1,4.72,3.91l-1.76,1.48h8.91a33.57,33.57,0,0,0,2.24-5.39L245,8c.28.08.52.28.52.44,0,.32-.32.52-1.24.72A28.55,28.55,0,0,1,241,12.72h11.2l1.35-.28V14l-1.35-.28H237.84Z"/><path class="cls-2" d="M273.93,7.33h2.2c.48,0,.68.08.68.36s0,.24-.64.68v3.07h17.39c-.92,2-2.68,3.88-5.6,6l-.32-.28a24.06,24.06,0,0,0,2.48-4.72h-28.9l0,.2v.08a8.39,8.39,0,0,1-2.64,5.6L256.94,16a10.15,10.15,0,0,0,3.76-6.39h.6v1.51l0,.08v.2h12.67Zm1.88,12.39c.48.08.68.2.68.44s-.12.4-.72.68a39,39,0,0,0,17.79,10,13.1,13.1,0,0,0-1.32,2.24c-5.72-1.84-12.43-6.51-16.79-11.67l-.16-.16c-.12.12-.16.12-.2.24a41.6,41.6,0,0,1-18,12.07l-.16-.32c6.72-3.36,13.87-9.15,17.11-13.83Zm-16.11,3.4a35.06,35.06,0,0,0,9.11-8l2.12,1c.28.12.52.36.52.48,0,.32-.52.56-1.36.68-4,3.36-6.35,4.8-10.23,6.2Zm6.36,20.75h-2.2V31.55h22.86v12h-2.2V42H266.06Zm18.46-2.8V32.51H266.06v8.56ZM279,15.4c5.71,2.2,7.63,3.16,11.47,5.8l-1.8,1.88a49.69,49.69,0,0,0-10-7.24Z"/><path class="cls-2" d="M302.5,24.92c-.16,11.47-1.12,14.07-6.87,18.87l-.36-.44c4.19-4.32,5-7.48,5.19-19.35h-3.83l-1.4.28V22.76l1.4.28h3.87l.12-7V10.36h-3l-1.36.29V9.13l1.36.28h17L316,9.13v1.52l-1.36-.29h-3.16V23h4l1.36-.28v1.52L315.41,24h-4V43.59H309.3V24h-6.76Zm.2-8.84-.16,7h6.76V10.36h-6.6Zm11,27a38,38,0,0,0,16.11-12l2.12,1.6a.29.29,0,0,1,.12.24c0,.4-.36.6-1.36.72-5.12,5.44-11.16,9-16.87,9.8Zm.8-26.71a45.44,45.44,0,0,0,12.83-8.59l2,1.76a.35.35,0,0,1,.12.24c0,.36-.4.56-1.48.56a39,39,0,0,1-13.28,6.51Zm.32,12.27a39.92,39.92,0,0,0,13.11-9.55l2,1.76a.35.35,0,0,1,.12.24c0,.4-.44.6-1.44.64A34.42,34.42,0,0,1,315,29.11Z"/><path class="cls-2" d="M356.3,15.44c.44,7.08,1.36,11.52,3.44,16.27a36.55,36.55,0,0,0,5-10.75l2.07.84c.4.12.6.36.6.64s-.24.52-1,.68a50.45,50.45,0,0,1-5.63,10.55,23.87,23.87,0,0,0,2.64,4c1.51,1.8,3.63,3.48,4.39,3.48s1.24-1.44,1.8-6.4l.8.16c-.28,5.84-1.12,8.68-2.6,8.68-2.16,0-5.75-3.4-8.43-8a28.06,28.06,0,0,1-12.95,8l-.16-.48c3.91-1.56,9.07-5.56,12.11-9.32-2.36-4.68-3.8-11-4.2-18.31H339v7.72h11.63c-.08,6.79-.16,9.11-.36,11.23a3,3,0,0,1-.88,2.08,2.94,2.94,0,0,1-2.48.76h-4.67V36.15h3.4c1.16,0,1.79-.32,2.15-1,.45-1,.6-2.76.8-11H339L338.87,29c0,7.08-1.44,11.12-5,14.56l-.28-.32c2.68-4.44,3.2-7.8,3.2-21.15v-7.6H354.1C354,12.76,354,11.64,354,11V7.33h2.12c.48,0,.68.08.68.36s-.12.32-.64.68V11c0,1.24,0,2.28.12,3.48h12l1.36-.28v1.52l-1.36-.28Zm4.36-7.11A12.87,12.87,0,0,1,365.3,11l-1.92,1.72a24.69,24.69,0,0,0-3-4.11Z"/><path class="cls-2" d="M403.32,14.36c-1.48,9.06-5.1,16.56-10.41,21.55-4.75,4.19-9.38,6.31-17.54,7.92l0-.64c8.48-2.49,15.32-6.85,18.7-11.94a40.15,40.15,0,0,0,6.56-15.75H386.71a26.58,26.58,0,0,1-11.06,12.15l-.28-.46a35.53,35.53,0,0,0,10-14.27c.57-1.65.81-2.5.85-2.54l.36-2,2.53.68c.45.08.61.21.61.46s-.2.51-.89.85c-.52,1.52-1,2.71-1.57,4Z"/><path class="cls-2" d="M528.73,14.36c-1.49,9.06-5.11,16.56-10.42,21.55-4.75,4.19-9.37,6.31-17.54,7.92l0-.64c8.49-2.49,15.32-6.85,18.7-11.94A40,40,0,0,0,526,15.5H512.11a26.53,26.53,0,0,1-11.06,12.15l-.28-.46a35.65,35.65,0,0,0,10-14.27c.56-1.65.8-2.5.84-2.54l.36-2,2.54.68c.44.08.6.21.6.46s-.2.51-.88.85c-.53,1.52-1,2.71-1.57,4Z"/><path class="cls-2" d="M408.17,9l2.88.25a.38.38,0,0,1,.4.38c0,.3-.12.46-.72.89V30.93h-2.28V11Zm19.3-.59,2.88.3a.37.37,0,0,1,.4.37c0,.3-.16.47-.72.85v10.3c0,5.68-.12,7.91-.6,10.35-1.32,6.56-7.27,11.65-15.62,13.25l-.16-.55a22.2,22.2,0,0,0,6.19-3.07c4.16-3,6.67-6.52,7.39-10.47a52.39,52.39,0,0,0,.52-9.51V10.41Z"/><path class="cls-2" d="M433.49,39.25V37l1.65.33h30.48l1.65-.33v2.23l-1.65-.34H435.14Zm5-23.68V13.33l1.64.33h20.26l1.64-.33v2.24l-1.64-.34H440.15Z"/><path class="cls-2" d="M474.84,30a24.58,24.58,0,0,0-4.41-9.25l.32-.29a14.23,14.23,0,0,1,6.1,8.7ZM477,43.18c8.06-3.34,12.36-9.38,15.05-21.2l.15-2,2.65,1.23a.4.4,0,0,1,.28.38c0,.34-.2.46-.8.63-1.24,5.41-2.61,9.21-4.61,12.5a19.78,19.78,0,0,1-12.56,9.08ZM482.59,29a29.42,29.42,0,0,0-4.06-9.29l.37-.34a15.81,15.81,0,0,1,5.77,8.74Z"/></svg>