<svg xmlns="http://www.w3.org/2000/svg" width="1072" height="118"><path fill-rule="evenodd" d="M1049.1 10.5c-5.6-3.1-12-4.7-19.2-4.7-16.1 0-27.4 7.8-33.9 23.4a78.7 78.7 0 0 0-5.1 30.4c0 20.8 6.4 35 19.3 43 6.5 3.8 13.8 5.8 22 5.8a37 37 0 0 0 21.7-6.3c4.7-3.2 9.9-8.8 15.6-16.6l2.5 1.6c-10.7 19-26 28.5-45.8 28.5a50 50 0 0 1-42.7-20.4 58.1 58.1 0 0 1-11.3-35.7c0-10.8 2.4-20.7 7-29.8A54.1 54.1 0 0 1 1028.7 0a41 41 0 0 1 21.7 5.6 58.1 58.1 0 0 1 19.5 21.6l-2.5 1.6a62.2 62.2 0 0 0-18.2-18.3zM937 5h15.7v110.5h-15.7V5zM832 28.3v87.2h-7.2V5h8.3l67.7 82.8V5h7.2v112.3h-3l-73-89zM780.3 5H796v110.5h-15.7V5zm-91 110.5V5l15.8-.1v103.5h56.4l-2.3 7h-69.8zm-57-7.1a37 37 0 0 0 21.6-6.3c4.7-3.2 9.9-8.8 15.6-16.6L672 87c-10.7 19-26 28.5-45.8 28.5a50 50 0 0 1-42.7-20.4 58.2 58.2 0 0 1-11.3-35.7c0-10.8 2.4-20.7 7-29.8A54.1 54.1 0 0 1 628.7 0a41 41 0 0 1 21.7 5.6 58 58 0 0 1 19.5 21.6l-2.5 1.6A62.2 62.2 0 0 0 649 10.5c-5.6-3.1-12-4.7-19.2-4.7-16.1 0-27.4 7.8-33.9 23.4a78.7 78.7 0 0 0-5.1 30.4c0 20.8 6.4 35 19.3 43 6.5 3.8 13.8 5.8 22 5.8zM439.9 5h69.7v6h-53.8v43.7h44.9v6h-45v48.8h53.9v6h-69.7V5zm-44.3 0h15.7v110.5h-15.7V5zm-36.4 110.5L321.7 64h-11.6v51.5h-15.6V5.8L319 5c10.7-.4 19.4.4 26.1 2.5a29.2 29.2 0 0 1 14.4 9.8c3.8 4.7 5.6 10 5.6 16.1 0 14.9-9 24.3-27.3 28.3l39.1 53.8h-17.6zm-12.6-81c0-7-2.1-12.7-6.5-17-4.4-4.2-10-6.3-17.2-6.3-3.1 0-7.4.5-12.8 1.5v46h4.6c8.9 0 16.1-1.7 21.8-5.3a20.9 20.9 0 0 0 10.1-19zM205.6 5h69.6v6h-53.8v43.7h45v6h-45v48.8h53.8v6h-69.7V5zM160 62.3h-51.5v53.2H93V5h15.7v51.2h51.5V5h15.5l.1 105.8v4.7h-15.6V62.3zM38.7 118c-3.1 0-6-.2-8.7-.6a36 36 0 0 1-11.2-3.4c-4-1.8-8-5.6-12-11.2C3 97.2 1 89.5 1 79.7h4.9c0 7.4 1 12.9 3 16.5 2.6 4.9 6.5 8.7 12 11.5a34 34 0 0 0 16.1 4 25 25 0 0 0 15.1-4.6c4.7-3.3 7-7.8 7-13.5 0-6-3.1-11.3-9.3-16-3.7-2.9-10-6.7-18.6-11.4-8.7-4.7-15-8.6-19-11.7A28.5 28.5 0 0 1 0 31.5C0 23 3.3 16 9.9 10.3c6.3-5.2 13.8-7.9 22.5-7.9C42.4 3 49.5 5 53.6 8.3c4 3.3 7 7 8.7 11a48.7 48.7 0 0 1 4 16.5h-5c-2-11.7-6-19.2-11.7-22.6a30 30 0 0 0-17-4.5c-5 .2-9.5 1.8-13.4 4.8A15.3 15.3 0 0 0 13 26c0 3.3 1.2 6.4 3.5 9.2C20 39.2 28 44.6 40.6 51.4c8.8 4.7 14.4 7.9 16.8 9.6a38.3 38.3 0 0 1 13.2 13.6c2 4 3 8.3 3 12.7A28 28 0 0 1 63 109.9a37.2 37.2 0 0 1-24.2 8.1z"/></svg>