<svg xmlns="http://www.w3.org/2000/svg" width="253.94" height="42.821" viewBox="0 0 253.94 42.821">
  <g id="グループ_853" data-name="グループ 853" transform="translate(-135.928 -517.792)">
    <g id="グループ_851" data-name="グループ 851" transform="translate(135.928 517.792)">
      <path id="パス_1565" data-name="パス 1565" d="M143.975,538.323a2.37,2.37,0,1,0-2.6,2.117A2.37,2.37,0,0,0,143.975,538.323Z" transform="translate(-136.648 -521.68)" fill="#53bec1"/>
      <path id="パス_1566" data-name="パス 1566" d="M146.682,540.169a1.83,1.83,0,1,0,2.006-1.635A1.829,1.829,0,0,0,146.682,540.169Z" transform="translate(-138.258 -522.29)" fill="#53bec1"/>
      <path id="パス_1567" data-name="パス 1567" d="M187.728,557.012l-1.808.461c-.914.2-1.587.332-2.558.543a22.912,22.912,0,0,1-6.783.655,34.657,34.657,0,0,1-8.547-1.792c-2.943-1.031-5.857-2.448-8.832-3.3l-.025-12.867.034-5.871,4.508-1.439v19.365c-.9-.038-1.771-.052-2.563-.021a.012.012,0,0,0,0,.023c2.283.727,3.11,1.122,4.592,1.716a40.273,40.273,0,0,0,7,2.179,29.589,29.589,0,0,0,4.164.529,38.519,38.519,0,0,0,8.076-.847.011.011,0,0,0,0-.022c-.4-.038-2.111-.2-3.7-.4a21.824,21.824,0,0,0,5.33-13.995,21.525,21.525,0,0,0-5.849-14.743,20.982,20.982,0,0,0-14.374-6.706c-.55-.027-.863-.043-1.067-.055-.3-.016-.93-.02-1.157-.021l1.046.673c.245.008.157,0,.441.02.205.011.153,0,.706.026a20.315,20.315,0,0,1,13.917,6.5,20.892,20.892,0,0,1,5.677,14.309,21.222,21.222,0,0,1-5.441,13.9h0V534.846l-2.357-.948-2.989.944V526.9l-2.67-1.056-6.693,2.152.005,5.674-2.094-.823-5.033,1.612-.028,4.9-1.82-.721-7.154,2.279V552.4a28.364,28.364,0,0,1-4.766-15.762c0-.689.026-1.371.074-2.047a21.419,21.419,0,0,0,2.058,18.709c-.259.052-.519.1-.778.161a29.132,29.132,0,0,0-3.648,1.107c-.212.079-.5.194-.832.342a6.259,6.259,0,0,0-1.185.663s2.5-.357,5.22-.658c7.249-.8,14.019,2.34,20.849,4.643,7.182,2.422,13.249,2.168,18.941-1.085.327-.187,1.962-1.358,2.115-1.463C187.735,557.014,187.732,557.011,187.728,557.012Zm-9.591-22.556v20.936c-.926-.224-1.957-.522-2.944-.81l-.023-9.3v-9.884Zm-5.641-8.063v27.453a53.928,53.928,0,0,0-6.137-.9l-.027-24.565Zm-15.677,12.8v13.837a25.366,25.366,0,0,0-6.61-.2V541.3Zm-7.135,13.675v.02l-.07.009Z" transform="translate(-136.943 -518.358)" fill="#53bec1"/>
      <path id="パス_1568" data-name="パス 1568" d="M150.494,566.149a22.392,22.392,0,0,0-8.569.7,37.9,37.9,0,0,1,5.667.579c1.834.388,3.868,1.125,6.542,1.859a39.147,39.147,0,0,0,10.839,1.341c-3.13-.96-5.893-2.08-7.406-2.629A37.024,37.024,0,0,0,150.494,566.149Z" transform="translate(-137.229 -528.249)" fill="#53bec1"/>
      <path id="パス_1569" data-name="パス 1569" d="M165.253,531.63a.011.011,0,0,0,.007-.02c-5.323-3.276-11.75-2.9-18.121,3.957-.009.009,0,.025.011.02C147.954,535.2,157.8,530.572,165.253,531.63Z" transform="translate(-138.359 -520.356)" fill="#53bec1"/>
      <path id="パス_1570" data-name="パス 1570" d="M143.538,534.145c-2.135-7.546-4.521-9.569-7.6-8.906a.011.011,0,0,0,0,.02c2.193.84,7.1,8.168,7.585,8.9C143.526,534.167,143.542,534.157,143.538,534.145Z" transform="translate(-135.928 -519.382)" fill="#53bec1"/>
      <path id="パス_1571" data-name="パス 1571" d="M158.505,540.319c-.411-2.94-3.615-4.489-10.845-3.027-.013,0-.014.021,0,.022.859.053,8.092.574,10.829,3.015A.011.011,0,0,0,158.505,540.319Z" transform="translate(-138.47 -521.901)" fill="#53bec1"/>
      <path id="パス_1572" data-name="パス 1572" d="M146.673,533.319c0,.013.015.018.023.007a31.418,31.418,0,0,1,9.894-9.381A18.569,18.569,0,0,1,165.923,521a.012.012,0,0,0,.009-.021c-.976-.948-3.489-1.5-6.919-.757a14.852,14.852,0,0,0-7.352,4.037A19.376,19.376,0,0,0,146.673,533.319Z" transform="translate(-138.258 -518.245)" fill="#53bec1"/>
      <path id="パス_1573" data-name="パス 1573" d="M146.584,530.249c.134-.488.46-1.727.564-2.17a36.189,36.189,0,0,1,1.544-4.371,28.238,28.238,0,0,1,3.663-5.9.011.011,0,0,0-.011-.018,10.118,10.118,0,0,0-3.084,1.781,10.611,10.611,0,0,0-2.5,3.162,12.922,12.922,0,0,0-1.108,3.987,23.834,23.834,0,0,0,.395,6.038C146.231,531.751,146.443,530.762,146.584,530.249Z" transform="translate(-138.027 -517.792)" fill="#53bec1"/>
    </g>
    <g id="グループ_852" data-name="グループ 852" transform="translate(196.223 528.495)">
      <path id="パス_1574" data-name="パス 1574" d="M214.2,539.255h16.557l-1.156,2.9-5.886,5.25-4.9-5.045-1.937,1.881,10.149,10.452,1.937-1.881-3.367-3.468,6.276-5.6,2.865-7.193H214.2Z" transform="translate(-214.202 -532.897)" fill="#53bec1"/>
      <path id="パス_1575" data-name="パス 1575" d="M259.694,536.757l-3.646,3.046-5.293,2.807-5.109,2.2,1.067,2.48,5.16-2.219,3.582-1.9v10.4h2.7V541.56l3.312-2.767,3.411-3.346-1.892-1.926Z" transform="translate(-220.808 -532.26)" fill="#53bec1"/>
      <path id="パス_1576" data-name="パス 1576" d="M277.442,537.92h16.143l-.584,2-3.987,3.441,1.764,2.044,4.591-3.963,1.816-6.224H277.442Z" transform="translate(-227.488 -532.617)" fill="#53bec1"/>
      <path id="パス_1577" data-name="パス 1577" d="M284.945,548.015l-2.76,3.169-4.35,2.7,1.424,2.294,4.7-2.914,3.691-4.238V541.29h-2.7Z" transform="translate(-227.57 -533.892)" fill="#53bec1"/>
      <path id="パス_1578" data-name="パス 1578" d="M312.608,533.669h-2.3v2.7h2.037l6.789,1.337,4.748,1.484.805-2.577-4.818-1.506Z" transform="translate(-234.392 -532.291)" fill="#53bec1"/>
      <path id="パス_1579" data-name="パス 1579" d="M323.244,548.237l.746-2.595-4.963-1.428-6.9-1.44-.55,2.644,6.752,1.4Z" transform="translate(-234.659 -534.204)" fill="#53bec1"/>
      <path id="パス_1580" data-name="パス 1580" d="M317.428,553.916l-8.147-1.845-.594,2.634,7.954,1.794,6.151,2.044h1.527v-2.7h-1.09Z" transform="translate(-234.052 -536.157)" fill="#53bec1"/>
      <path id="パス_1581" data-name="パス 1581" d="M348.717,549.541l3.412,3.474,4.625,2.688h2.272V553h-1.544l-3.681-2.14-1.3-1.323h6.057v-2.7h-8.421v-1.465h8.888v-2.7h-8.888v-1.271h6.746v-2.7h-6.746v-1.232h7.6v-2.7h-3.279l.817-1.059-2.138-1.649-2.088,2.707h-5.14l-1.818-2.647-2.225,1.528.768,1.119H339.16v2.7h7.6v1.232h-6.4v2.7h6.4v1.271h-8.655v2.7h8.655v1.465h-8.343v2.7h6.162l-1.386,1.5L339.987,553h-1.879v2.7h2.639l4.177-2.554,3.333-3.608Z" transform="translate(-240.232 -531.954)" fill="#53bec1"/>
      <path id="パス_1582" data-name="パス 1582" d="M381.135,533.109h-2.7v1.479h-9.507v5.206h2.7v-2.506h16.314v2.851h2.7v-5.551h-9.507Z" transform="translate(-246.707 -532.173)" fill="#53bec1"/>
      <path id="パス_1583" data-name="パス 1583" d="M375.037,543.475l2.918-2.931-1.913-1.9-2.854,2.868-2.755,2.532,1.827,1.988Z" transform="translate(-247.024 -533.335)" fill="#53bec1"/>
      <path id="パス_1584" data-name="パス 1584" d="M391.282,546.214l1.78-2.03-3-2.631-2.872-2.768-1.874,1.944,2.894,2.79Z" transform="translate(-250.15 -533.365)" fill="#53bec1"/>
      <path id="パス_1585" data-name="パス 1585" d="M383.916,544.764l-4.08-4.66-4.259,4.818L370.23,549.5h-1.084v2.7h2.082l1.257-1.077v6.17h2.7v-.722h9.3v.722h2.7v-6.172l1.252,1.079h2.083v-2.7h-1.083Zm-8.731,5.725h9.3v3.386h-9.3Zm1.194-2.7,1.025-.879,2.422-2.72,2.121,2.423,1.364,1.175Z" transform="translate(-246.753 -533.642)" fill="#53bec1"/>
      <path id="パス_1586" data-name="パス 1586" d="M416.9,533.229h-2.7v5.99l-1.431-3.567-.22.088h-6.149l.846-2.635-2.57-.826-2.138,6.656-3.639,5.319,2.228,1.525,3.861-5.643.545-1.7h3.6l-1.531,5.251-2.422-1.867-1.648,2.138,3.031,2.337-2.376,3.9-4.218,3.2,1.633,2.15,4.626-3.514,3.364-5.524,1.947-6.68.715,1.784,1.945,3.328v9.531h2.7v-7.332l4.038,2.769,1.527-2.227-5.565-3.816Z" transform="translate(-253.005 -531.999)" fill="#53bec1"/>
      <path id="パス_1587" data-name="パス 1587" d="M440.32,544.981l-2.349-3.656h2.488v-2.7h-3.3V535.8l3.187-1.419-1.111-2.461-3.389,1.529-4.687,1.2.669,2.616,2.631-.673v2.031h-3.3v2.7h2.8l-2.282,4.406-2,2.75,2.182,1.59,2.064-2.833.544-1.044v8.574h2.7v-9.712l.89,1.385Z" transform="translate(-259.468 -531.924)" fill="#53bec1"/>
      <path id="パス_1588" data-name="パス 1588" d="M449,540.617l1.915-1.9-2.194-2.207-2.409-1.915-1.674,2.119,2.225,1.757Z" transform="translate(-262.614 -532.485)" fill="#53bec1"/>
      <path id="パス_1589" data-name="パス 1589" d="M448.1,548.437l2.049-1.758-2.082-2.427-2.547-2.032-1.684,2.111,2.348,1.873Z" transform="translate(-262.444 -534.087)" fill="#53bec1"/>
      <path id="パス_1590" data-name="パス 1590" d="M455.715,548.435l-.673-2.615-1.664.429V533.482h-2.7v13.462l-8.622,2.222.673,2.615,7.948-2.048V555.1h2.7v-6.059Z" transform="translate(-262.07 -532.251)" fill="#53bec1"/>
    </g>
  </g>
</svg>
