<svg id="bcc54d0b-50c6-4647-bdeb-1354f3e03c36" data-name="レイヤー 1" xmlns="http://www.w3.org/2000/svg" xmlns:xlink="http://www.w3.org/1999/xlink" width="212.55" height="120.53" viewBox="0 0 212.55 120.53"><defs><linearGradient id="fe90bf7e-4e32-44d9-b9ea-adb40eb082f5" x1="750.3" y1="341.7" x2="786.32" y2="300.26" gradientUnits="userSpaceOnUse"><stop offset="0" stop-color="#c68212"/><stop offset="0.12" stop-color="#c88718"/><stop offset="0.3" stop-color="#cf942a"/><stop offset="0.49" stop-color="#d9a947"/><stop offset="0.71" stop-color="#e8c76f"/><stop offset="0.94" stop-color="#faeea2"/><stop offset="1" stop-color="#fff8b0"/></linearGradient><linearGradient id="f8b806a1-b1cb-42a7-b551-d9ba08b21f0f" x1="773.26" y1="358.74" x2="810.29" y2="316.14" xlink:href="#fe90bf7e-4e32-44d9-b9ea-adb40eb082f5"/><linearGradient id="a89896cb-88d3-47e5-ac70-5b957a2d1e07" x1="711.48" y1="335.5" x2="738.95" y2="303.9" xlink:href="#fe90bf7e-4e32-44d9-b9ea-adb40eb082f5"/><linearGradient id="a3e58b98-7f3e-47b3-9282-73b40026ea26" x1="749.49" y1="344.67" x2="751.33" y2="309.54" gradientUnits="userSpaceOnUse"><stop offset="0" stop-color="#c68212"/><stop offset="0.17" stop-color="#c78516"/><stop offset="0.33" stop-color="#cb8d21"/><stop offset="0.48" stop-color="#d29b34"/><stop offset="0.64" stop-color="#dcaf4f"/><stop offset="0.79" stop-color="#e8c971"/><stop offset="0.93" stop-color="#f7e89b"/><stop offset="1" stop-color="#fff8b0"/></linearGradient><linearGradient id="bcc3b65d-ba6a-4042-ae4d-2962921ad397" x1="750.5" y1="320.16" x2="733.92" y2="298.17" xlink:href="#fe90bf7e-4e32-44d9-b9ea-adb40eb082f5"/><linearGradient id="e5dcab3f-254c-4bc9-971c-757cd7ca5423" x1="758" y1="316.04" x2="757.07" y2="298.21" xlink:href="#fe90bf7e-4e32-44d9-b9ea-adb40eb082f5"/><linearGradient id="a769116d-b051-4948-a24b-165cd94fdfd9" x1="791.01" y1="289.6" x2="779.94" y2="337.56" xlink:href="#fe90bf7e-4e32-44d9-b9ea-adb40eb082f5"/><linearGradient id="beb1439a-04f1-48d8-b965-092e7749c8b2" x1="720.78" y1="323.77" x2="760.32" y2="278.29" xlink:href="#fe90bf7e-4e32-44d9-b9ea-adb40eb082f5"/><linearGradient id="afa58921-ee92-496e-9687-b6ac6b80acc2" x1="743.87" y1="311.66" x2="770.06" y2="281.53" xlink:href="#fe90bf7e-4e32-44d9-b9ea-adb40eb082f5"/><linearGradient id="b0587991-ea77-49d7-8a01-c4af36ccbf23" x1="766.67" y1="310.65" x2="783.27" y2="291.56" xlink:href="#fe90bf7e-4e32-44d9-b9ea-adb40eb082f5"/><linearGradient id="e486e9a3-5b11-4652-bb74-d1efa2055dfe" x1="753.97" y1="305.27" x2="763.28" y2="291.97" xlink:href="#fe90bf7e-4e32-44d9-b9ea-adb40eb082f5"/><linearGradient id="a38d1175-f5b0-4858-9016-dd9ca0ae443b" x1="763.95" y1="308.29" x2="773.2" y2="290.9" xlink:href="#fe90bf7e-4e32-44d9-b9ea-adb40eb082f5"/><linearGradient id="ae6b0f8b-4d37-4771-92e4-34e51d339a3e" x1="754.63" y1="341.83" x2="751.92" y2="367.58" gradientUnits="userSpaceOnUse"><stop offset="0" stop-color="#c68212"/><stop offset="0.18" stop-color="#c78516"/><stop offset="0.34" stop-color="#cb8d20"/><stop offset="0.49" stop-color="#d29a33"/><stop offset="0.64" stop-color="#dbae4c"/><stop offset="0.78" stop-color="#e7c66d"/><stop offset="0.92" stop-color="#f5e495"/><stop offset="1" stop-color="#fff8b0"/></linearGradient><linearGradient id="a57d7443-6fe6-47b3-beb6-c130f1caec21" x1="741.12" y1="330.27" x2="738.04" y2="355.4" xlink:href="#fe90bf7e-4e32-44d9-b9ea-adb40eb082f5"/></defs><path d="M790.58,315.28c-6.3-9.6-26.65-1.44-42.14,3.72,16.73,7.23,21,13.74,21.48,21.28C789.44,333.05,776.22,309.91,790.58,315.28Z" transform="translate(-657.45 -278)" style="fill-rule:evenodd;fill:url(#fe90bf7e-4e32-44d9-b9ea-adb40eb082f5)"/><path d="M769.2,345.44c13.84-6.71,23.75-8.16,29.95-24.17,4.85,6.3,11.26,2.48,15.39,8-22.83,2.79-18.49,24.17-30.67,26.13C787.38,347.61,776.43,353.08,769.2,345.44Z" transform="translate(-657.45 -278)" style="fill-rule:evenodd;fill:url(#f8b806a1-b1cb-42a7-b551-d9ba08b21f0f)"/><path d="M725.82,303.4c-7.54,5.48-8.16,3.31-12.7.62-1.55,19.42,6.3,27,24.06,31.5C728.71,326.85,724.17,318.38,725.82,303.4Z" transform="translate(-657.45 -278)" style="fill-rule:evenodd;fill:url(#a89896cb-88d3-47e5-ac70-5b957a2d1e07)"/><path d="M733.67,310.43c7.54,13,34.91,12.49,33.46,33.46C742.55,330.26,735.74,342.24,733.67,310.43Z" transform="translate(-657.45 -278)" style="fill-rule:evenodd;fill:url(#a3e58b98-7f3e-47b3-9282-73b40026ea26)"/><path d="M738.84,296.69c3.51,3.2,6.92,7.33,12.8,18.59-4.34,4.65-10.22-.31-14.77-4.13C738.11,307.74,739.77,302.89,738.84,296.69Z" transform="translate(-657.45 -278)" style="fill-rule:evenodd;fill:url(#bcc3b65d-ba6a-4042-ae4d-2962921ad397)"/><path d="M742.76,298.55c3.31,3.93,5,5.06,11.77,16,6.2-1.65,10.75-4.34,17.46-5C762.28,306,750,304.85,742.76,298.55Z" transform="translate(-657.45 -278)" style="fill-rule:evenodd;fill:url(#e5dcab3f-254c-4bc9-971c-757cd7ca5423)"/><path d="M779.84,337.28c9-1.76,16.32-10.64,18.17-17.76-.2-11.47-.2-16.63-2.58-19.73-2.58-3.3-7.74-4.23-18.9-7.75,9.5,6.82,14.87,13.64,15.6,25C779.94,314.66,788.72,324.47,779.84,337.28Z" transform="translate(-657.45 -278)" style="fill-rule:evenodd;fill:url(#a769116d-b051-4948-a24b-165cd94fdfd9)"/><path d="M748.13,278c1.45,4.13,10.43,3.92,11.26,8.88-10.85,1.24-18.18,4.34-22.52,9.81.21,8.37-1,13.94-4.75,10.95-.51,8.26.11,10.95,1.86,19.93-6.19-5.16-7.64-19.93-5.27-22.82,2.28,2.17,2.69-2,5-.11C731.19,291.84,732.43,287.6,748.13,278Z" transform="translate(-657.45 -278)" style="fill-rule:evenodd;fill:url(#beb1439a-04f1-48d8-b965-092e7749c8b2)"/><path d="M750.3,301.24c-18.8-8,10-15.08,24.58-9C763.62,291.22,745.14,292,750.3,301.24Z" transform="translate(-657.45 -278)" style="fill-rule:evenodd;fill:url(#afa58921-ee92-496e-9687-b6ac6b80acc2)"/><path d="M766.41,294c10.23-.52,14.05,4.95,19.31,11.67-3.4,4-5.47,4.13-16.62.93C778.8,303.2,776.33,296.49,766.41,294Z" transform="translate(-657.45 -278)" style="fill-rule:evenodd;fill:url(#b0587991-ea77-49d7-8a01-c4af36ccbf23)"/><path d="M765.69,294.11c-5.68,1-10.54,1.24-13.53,6.3,2.17,1.55,6.3,2.79,8.16,3.3C759.18,301.86,760.83,297,765.69,294.11Z" transform="translate(-657.45 -278)" style="fill-rule:evenodd;fill:url(#e486e9a3-5b11-4652-bb74-d1efa2055dfe)"/><path d="M761.45,304c7.23,2.07,17.56-3.2,5.58-8C769.2,299,767.34,302.37,761.45,304Z" transform="translate(-657.45 -278)" style="fill-rule:evenodd;fill:url(#a38d1175-f5b0-4858-9016-dd9ca0ae443b)"/><path d="M777.05,352.57a37.93,37.93,0,0,1-9.5-4.76c-8.37,1.14-15,2.38-21.69,8.37-6.82-10.84-9.61-6.61-15.08-11.46C741.52,365.37,767.13,361,777.05,352.57Z" transform="translate(-657.45 -278)" style="fill-rule:evenodd;fill:url(#ae6b0f8b-4d37-4771-92e4-34e51d339a3e)"/><path d="M766.72,345.65c-16.11-5.68-26.13-9-53.6-11.16,13.43,3.93,29.85,11.16,33.26,18.49C753.91,347.19,759.29,346.78,766.72,345.65Z" transform="translate(-657.45 -278)" style="fill-rule:evenodd;fill:url(#a57d7443-6fe6-47b3-beb6-c130f1caec21)"/><path d="M759.8,398.42v-2.89a.8.8,0,0,0,.52.21,2.63,2.63,0,0,0,.82.1h.11a5.76,5.76,0,0,0,1.86-.31,8,8,0,0,0,1.65-1.14l.1-.2.11.2.51.62.11.11-.11.1a7.13,7.13,0,0,1-2.58,2.27c-.1.1-.31.21-.41.31h0a7.38,7.38,0,0,1-2.38.62h-.31Zm0-8.05v-1.55h2.07a1.88,1.88,0,0,0,.51-.11.36.36,0,0,0,.11-.31h0a3.28,3.28,0,0,0-.62-2.06,2.7,2.7,0,0,0-1.86-.93h-.21v-1.34a2.7,2.7,0,0,1,.93-.11h0a5.38,5.38,0,0,1,3.51,1.45,4.87,4.87,0,0,1,1.45,3.41h0a1.8,1.8,0,0,1-.21.82.85.85,0,0,1-.62.31h0a45.56,45.56,0,0,1-5.06.42Zm16,6.71V398h-7.54v-1.14h.1c.93-.1,1.55-.2,1.76-.51s.41-.83.41-1.76V380.14a3.19,3.19,0,0,0-.31-1.75,4.25,4.25,0,0,0-1.75-.42h-.11v-1h.11a21.29,21.29,0,0,0,3.72-.72c.2-.11.41-.11.51-.21a4.86,4.86,0,0,0,.52-.1h.1l.21-.11v18.8c0,1,0,1.55.31,1.86s.82.31,1.86.41h.1v.21Zm25.82-1.34a10.34,10.34,0,0,0,2.68-3.62l.11-.1.1.1.93.31.1.1-.1.11a33.07,33.07,0,0,1-1.24,3.72,5.15,5.15,0,0,1-.31.72.78.78,0,0,0-.2.41h0l-.11.1h0l-.62.11a22.71,22.71,0,0,1-5.47.82h0c-4.13,0-7-1.34-9-3.3a10.31,10.31,0,0,1-2.89-7h0a10,10,0,0,1,3.62-8,14.16,14.16,0,0,1,9.08-3h0a26.2,26.2,0,0,1,5.07.72,2.39,2.39,0,0,0,.72.21h.2v.1a8.25,8.25,0,0,0,.21,1.55c.1,1,.31,2.07.41,3.31v.1h-.1l-.93.21-.1.1-.1-.21a5.78,5.78,0,0,0-2.17-3.51,6.92,6.92,0,0,0-4-1h0a7.58,7.58,0,0,0-6,2.58,9.67,9.67,0,0,0-2.07,6.09h0a9.84,9.84,0,0,0,2.38,6.92A7.62,7.62,0,0,0,797.7,397h.11a5.88,5.88,0,0,0,3.82-1.24Zm13.84,1.34V398H808v-1.14h.11c.93-.1,1.44-.2,1.75-.51s.31-.83.31-1.76V380.14c0-.93,0-1.45-.31-1.75s-.72-.31-1.65-.42H808v-1h.21a19.9,19.9,0,0,0,3.61-.72c.21-.11.42-.11.62-.21s.31-.1.52-.1h0l.21-.11v18.8a3.45,3.45,0,0,0,.31,1.86c.31.31.93.31,1.86.41h.1v.21Zm6.3-15.39h0a1.78,1.78,0,0,1-1.86-1.86h0a2.16,2.16,0,0,1,.52-1.34h0a2.16,2.16,0,0,1,1.34-.52h0a1.78,1.78,0,0,1,1.86,1.86h0a1.81,1.81,0,0,1-.62,1.34,1.71,1.71,0,0,1-1.24.52Zm3.92,15.39V398h-7.43v-1.14h.1c1-.1,1.55-.1,1.76-.41s.31-.93.31-2v-6.1a3.5,3.5,0,0,0-.21-1.75c-.21-.31-.72-.42-1.55-.52h-.21v-1h.21c.83-.21,1.65-.31,2.38-.52s1.55-.41,2.16-.62l.21-.1V394.5c0,1,.1,1.65.41,1.86s.73.41,1.76.51h.1v.21Zm18.7,0V398h-6.92v-1.14h.1c.83-.1,1.34-.2,1.55-.51s.31-.83.31-1.86v-5.06h0a3.86,3.86,0,0,0-.62-2.38,2.09,2.09,0,0,0-2-.83h0a3,3,0,0,0-1.65.42,6.54,6.54,0,0,0-1.45.93v7a3.79,3.79,0,0,0,.21,1.86c.31.31.72.31,1.54.41h.21V398h-7.23v-1.14h.11c1-.1,1.54-.2,1.85-.51s.21-.83.21-1.76v-6.2a3.5,3.5,0,0,0-.21-1.75h0a4.21,4.21,0,0,0-1.44-.52h-.1v-1h.1c1-.21,2.17-.41,3.2-.72h0c.21-.11.52-.21.72-.31h0a1.85,1.85,0,0,0,.52-.21h.1l.21-.1v2.47a5.21,5.21,0,0,1,.72-.62c.31-.2.73-.41,1.14-.72h0a7.5,7.5,0,0,1,1.24-.72,7.15,7.15,0,0,1,1.44-.21h0a3.62,3.62,0,0,1,3,1.34,5.44,5.44,0,0,1,1.13,3.62h0v5.68a3.55,3.55,0,0,0,.31,1.86,3.1,3.1,0,0,0,1.55.41h.11v.21ZM851,381.69h0a2.21,2.21,0,0,1-1.35-.52,2.15,2.15,0,0,1-.51-1.34h0a2.15,2.15,0,0,1,.51-1.34h0A2.21,2.21,0,0,1,851,378h0a1.73,1.73,0,0,1,1.24.52,2.15,2.15,0,0,1,.51,1.34h0a2.15,2.15,0,0,1-.51,1.34,1.73,1.73,0,0,1-1.24.52Zm3.92,15.39V398h-7.43v-1.14h.1c.93-.1,1.44-.1,1.75-.41s.31-.93.31-2v-6.1a3.65,3.65,0,0,0-.2-1.75c-.21-.31-.73-.42-1.55-.52h-.21v-1h.21c.82-.21,1.55-.31,2.37-.52s1.55-.41,2.17-.62l.21-.1V394.5a3.21,3.21,0,0,0,.31,1.86,2.91,2.91,0,0,0,1.75.51h.21v.21Zm12.39-1.55a6.37,6.37,0,0,0,1.86-1.34l.11-.11.1.21.52.62.1.1-.1.11a8,8,0,0,1-2.07,2.06c-.1.11-.31.21-.41.31a7.1,7.1,0,0,1-3,.93h0a6.45,6.45,0,0,1-4.85-2.06,6.67,6.67,0,0,1-1.65-4.55h0a7.13,7.13,0,0,1,1.65-4.65,5.42,5.42,0,0,1,.72-.72,5.51,5.51,0,0,1,.83-.72h0a11.14,11.14,0,0,1,2.17-1.24c.2,0,.31-.1.41-.1A7.1,7.1,0,0,1,866,384h.11a4.64,4.64,0,0,1,2.27.52h0a.48.48,0,0,1,.31.1c.1.11.2.21.31.21.2.2.31.41.41.51a1.37,1.37,0,0,1,.1.62h0a2.16,2.16,0,0,1-.41,1h0a1.06,1.06,0,0,1-.83.51h0c-.1,0-.2-.1-.31-.1a1.32,1.32,0,0,0-.41-.31,4.34,4.34,0,0,0-1.24-.83l-.2-.2h0a4.12,4.12,0,0,0-1.55-.31h-.11a3.26,3.26,0,0,0-2.37,1.13,5.11,5.11,0,0,0-1.14,3.52h0v.1h0a5.22,5.22,0,0,0,1.76,4.23,4.47,4.47,0,0,0,2.89,1.14h0A5.09,5.09,0,0,0,867.31,395.53ZM759.8,384.07v1.34a3.21,3.21,0,0,0-2.27,1.86,6.54,6.54,0,0,0-.31.82c-.1.21-.1.52-.21.83a18.09,18.09,0,0,0,2.38-.1h.41v1.55a7,7,0,0,0-1.44.1h-1.45c0,2.68,1.14,4.23,2.58,5,.11,0,.21.1.31.1v2.89a5.77,5.77,0,0,1-4.23-2.06h0a6.76,6.76,0,0,1-1.66-4.65h0a7.51,7.51,0,0,1,1-4,4.18,4.18,0,0,1,.41-.72,3.11,3.11,0,0,0,.52-.62h0a9.22,9.22,0,0,1,2-1.55c.1,0,.21-.1.31-.21a10.75,10.75,0,0,1,1.65-.51Zm-15.08,14.35v-2.89c.21.1.31.21.52.21a3,3,0,0,0,.93.1h0a5.76,5.76,0,0,0,1.86-.31,8,8,0,0,0,1.65-1.14l.1-.2.11.2.51.62.11.11-.11.1a6.41,6.41,0,0,1-2.58,2.27c-.1.1-.31.21-.41.31h0a6.77,6.77,0,0,1-2.38.62h-.31Zm0-8.05v-1.55h2.17c.21,0,.31-.11.41-.11a.36.36,0,0,0,.11-.31h0a3.28,3.28,0,0,0-.62-2.06,2.32,2.32,0,0,0-1.86-.93h-.21v-1.34a2.7,2.7,0,0,1,.93-.11h0a5.15,5.15,0,0,1,3.51,1.45,4.87,4.87,0,0,1,1.45,3.41h0a1.08,1.08,0,0,1-.21.82.85.85,0,0,1-.62.31h0a45.56,45.56,0,0,1-5.06.42Zm0-6.3v1.34a3.21,3.21,0,0,0-2.27,1.86,6.54,6.54,0,0,0-.31.82,3,3,0,0,1-.21.83,18.09,18.09,0,0,0,2.38-.1h.41v1.55a7,7,0,0,0-1.44.1h-1.45c.1,2.68,1.14,4.23,2.58,5,.11,0,.21.1.31.1v2.89a5.77,5.77,0,0,1-4.23-2.06h0a6.56,6.56,0,0,1-1.55-3.31v-2.68a6.85,6.85,0,0,1,.93-2.69,4.18,4.18,0,0,1,.41-.72,2.8,2.8,0,0,0,.52-.62h0a9.22,9.22,0,0,1,2-1.55c.1,0,.21-.1.31-.21a10.75,10.75,0,0,1,1.65-.51Zm-5.78-5.79v-1a1.35,1.35,0,0,1,.1.62v.21h0c-.1.1-.1.1-.1.2Zm0-1v1h0c-.1.21-.31.41-.41.62h0c-.11,0-.11.1-.21.1s0,.11-.1.11h0a.69.69,0,0,1-.52.2.88.88,0,0,1-.62-.31,6,6,0,0,0-.83-.61h0a.3.3,0,0,0-.2-.11h0a2.29,2.29,0,0,0-1.35-.41h0a1.92,1.92,0,0,0-.92.21,2.56,2.56,0,0,0-.52.61h0a5.38,5.38,0,0,0-.62,2.59v2h0v1h3.61v.11l.11.1h0a.86.86,0,0,1,0,.72c-.11.21-.21.52-.42.62h0v.1h-3.3v8.58c0,1,0,1.65.41,1.86s.93.41,2.17.51l.1.11v1h-8v-1.14h.21c.93-.1,1.44-.1,1.75-.41a3.26,3.26,0,0,0,.31-1.76v-8.78h-2.16v-.1l-.21-.41h0l.1-.11.83-.92.1-.11h1.34v-.51a9.37,9.37,0,0,1,.21-1.86v-.31a.4.4,0,0,0,.1-.31h0a5,5,0,0,1,.73-1.55,6.81,6.81,0,0,1,1.86-2.17h0a5.74,5.74,0,0,1,1.65-1.14,4.2,4.2,0,0,1,1.86-.51h0a4,4,0,0,1,2.06.51h0c.11.11.21.21.31.21s.11.21.21.31h.1c.11.1.11.21.21.31Zm0,13.12a5.58,5.58,0,0,0-.1,1.34h0a6.05,6.05,0,0,0,.1,1.34v-2.68Zm-20.45,8.05v-2.89a.8.8,0,0,0,.52.21,2.31,2.31,0,0,0,.82.1h.11a4.7,4.7,0,0,0,1.75-.31,6.4,6.4,0,0,0,1.76-1.14l.1-.2.1.2.52.62.1.11-.1.1a7.29,7.29,0,0,1-2.58,2.27c-.1.1-.31.21-.41.31h0a7.38,7.38,0,0,1-2.38.62h-.31Zm0-8.05v-1.55h2.07a1.88,1.88,0,0,0,.51-.11.36.36,0,0,0,.11-.31h0a2.79,2.79,0,0,0-.73-2.06,2.28,2.28,0,0,0-1.75-.93h-.21v-1.34a2.7,2.7,0,0,1,.93-.11h0a5,5,0,0,1,5,4.86h0a1.94,1.94,0,0,1-.21.82.85.85,0,0,1-.62.31h-.1a40.36,40.36,0,0,1-5,.42Zm0-6.3v1.34a3,3,0,0,0-2.27,1.86,5.28,5.28,0,0,0-.31.82,7.1,7.1,0,0,0-.21.83,19,19,0,0,0,2.38-.1h.41v1.55a7.08,7.08,0,0,0-1.45.1H715.5c.1,2.68,1.23,4.23,2.68,5,.1,0,.21.1.31.1v2.89a6.23,6.23,0,0,1-4.34-2.06h0a7.32,7.32,0,0,1-1.65-4.65h0a7.58,7.58,0,0,1,1.14-4,4.18,4.18,0,0,1,.41-.72c.21-.21.31-.42.52-.62h0a12.07,12.07,0,0,1,1.85-1.55.54.54,0,0,0,.42-.21,7.78,7.78,0,0,1,1.65-.51Zm-34.6,14.35v-2.89a.83.83,0,0,0,.52.21,2.63,2.63,0,0,0,.82.1h.11a5.76,5.76,0,0,0,1.86-.31,8,8,0,0,0,1.65-1.14l.1-.2.11.2.51.62.11.11-.11.1a7.13,7.13,0,0,1-2.58,2.27c-.1.1-.31.21-.41.31h0a7.38,7.38,0,0,1-2.38.62h-.31Zm0-8.05v-1.55H686a1.88,1.88,0,0,0,.51-.11.36.36,0,0,0,.11-.31h0a3.28,3.28,0,0,0-.62-2.06,2.7,2.7,0,0,0-1.86-.93h-.21v-1.34a2.7,2.7,0,0,1,.93-.11h0a5.38,5.38,0,0,1,3.51,1.45,4.87,4.87,0,0,1,1.45,3.41h0a1.8,1.8,0,0,1-.21.82.85.85,0,0,1-.62.31h-.1a40.36,40.36,0,0,1-5,.42Zm16,6.71V398h-7.54v-1.14h.1c.93-.1,1.55-.2,1.76-.51s.31-.83.31-1.76V380.14a3.47,3.47,0,0,0-.21-1.75,4.25,4.25,0,0,0-1.75-.42h-.11v-1h.11a18.31,18.31,0,0,0,3.61-.72c.31-.11.52-.11.62-.21a4.86,4.86,0,0,0,.52-.1h.1l.1-.11v18.8c0,1,.11,1.55.42,1.86s.82.31,1.75.41h.21v.21Zm9.71,0V398h-7.54v-.93l.1-.21h.11a2.91,2.91,0,0,0,1.75-.51,3,3,0,0,0,.31-1.76V380.14c0-.93,0-1.45-.31-1.75a3.27,3.27,0,0,0-1.65-.42h-.21v-1h.21a22,22,0,0,0,3.61-.72c.21-.11.42-.11.62-.21s.31-.1.52-.1h0l.21-.11v18.8a3.45,3.45,0,0,0,.31,1.86c.31.31.82.31,1.85.41h.11ZM669.23,387c-.11,0-.21.1-.31.1,2.17.31,3.92,1.14,4.75,2.69h0a3.17,3.17,0,0,1,.41,1h0a4.38,4.38,0,0,1,.1,1.24h0a4.9,4.9,0,0,1-1.55,3.72c-.2.2-.51.41-.72.62s-.51.31-.72.41h0a10.9,10.9,0,0,1-2.89.93l-1.76.31v-1.45a4.24,4.24,0,0,0,3.51-2l.31-.93a4.88,4.88,0,0,0,.21-1.24h0v-.1h0A3.71,3.71,0,0,0,669,389a4.59,4.59,0,0,0-2.48-.93v-1.65a3,3,0,0,0,1.86-.83h0a3.35,3.35,0,0,0,1-2.68h0a3.29,3.29,0,0,0-.93-2.69,3,3,0,0,0-2-1v-1.44a9.15,9.15,0,0,1,2.58.31,4.88,4.88,0,0,1,2,.82,3.56,3.56,0,0,1,1.23,1.24h0c0,.1.11.21.11.31a4.69,4.69,0,0,1,.51,2.07h0a4.5,4.5,0,0,1-2.78,4.13l-.93.31Zm14.66-2.89v1.34a3.21,3.21,0,0,0-2.27,1.86,6.54,6.54,0,0,0-.31.82c-.1.21-.1.52-.21.83a19,19,0,0,0,2.38-.1h.41v1.55a7,7,0,0,0-1.44.1H681c0,2.68,1.14,4.23,2.58,5,.11,0,.21.1.31.1v2.89a5.77,5.77,0,0,1-4.23-2.06h0a6.76,6.76,0,0,1-1.66-4.65h0a7.51,7.51,0,0,1,1-4,4.18,4.18,0,0,1,.41-.72c.21-.21.31-.42.52-.62h0a12.12,12.12,0,0,1,1.86-1.55.52.52,0,0,0,.41-.21A8,8,0,0,1,683.89,384.07ZM666.54,398h-9.09v-1.14h.21c1.24-.1,2-.2,2.27-.62s.41-1,.41-2.27h0V381.79h0c0-1.24,0-2-.31-2.27s-.93-.41-2.16-.52h-.11v-1.23h8.78v1.44a3.28,3.28,0,0,0-1-.1h0a4.68,4.68,0,0,0-1.34.2.11.11,0,0,0-.11.11h-.2c-.11.1-.11.2-.21.41h0c0,.21-.1.52-.1,1v5.68h1.24a9.76,9.76,0,0,0,1.75-.1v1.65a9.76,9.76,0,0,0-1.75-.1h-1.24v5.89a3.85,3.85,0,0,0,.51,2.27,3.22,3.22,0,0,0,2,.52c.21,0,.31-.11.52-.11Z" transform="translate(-657.45 -278)" style="fill:#c68212;fill-rule:evenodd"/></svg>