<svg version="1.1" id="Layer_1" xmlns="http://www.w3.org/2000/svg" x="0" y="0" viewBox="0 0 597.3 162.2" xml:space="preserve"><style>.st0{fill:#fff}</style><path class="st0" d="M247.9 134.1c7 9.8 19.4 14.8 38 16.3a33.2 33.2 0 00-5.7 8.8c-21.6-2.7-34.5-9.9-42.2-24.6-5.2 12.3-16.4 20.2-42.4 24.4-.7-2.5-3-6.4-4.8-8.5 21.6-3 31.7-8.2 36.6-16.4h-35v-8.3h38.3c.6-2.6 1-5.2 1.4-8.2h-39v-8.5h40V102H202v-8.2h31V87h-35.9v-8.5h19.4a41.8 41.8 0 00-6.7-10.2l8.3-3.4c3.5 3.6 7 8.6 8.3 12.4l-2.8 1.2h28.1l-3.4-1c2.8-3.6 6.3-8.9 8-12.7l10 2.9a91 91 0 01-8.2 10.9H279V87h-36.3v6.9h32.1v8.2h-32.1v7.1H283v8.5h-41l-1.3 8.2h43.4v8.3l-36.2-.1zM345.2 97.9a104.6 104.6 0 0043 30.1 44.5 44.5 0 00-5.9 8.7c-4.2-1.9-8.7-4.3-13.1-7v29h-9.6v-2.9h-37.8v3.2h-9.2v-28.3c-4.1 2.5-8.5 4.8-12.8 6.9a40.2 40.2 0 00-5.4-8c17-7.2 33.5-20.5 41.3-31.8l9.5.1zm-38-4.2h-9.3V73.9h37.6v-8.8h9.7v8.8h38.1v19.9h-9.6V82.5h-66.5v11.2zm24.9-4.5a93.8 93.8 0 01-26.1 23 47.4 47.4 0 00-6.7-7.6A70.6 70.6 0 00323 86.2l9.1 3zm29.1 35.5a105 105 0 01-20.4-17.8 93.3 93.3 0 01-19.2 17.8h39.6zm-1.7 22.8v-14.4h-37.8v14.4h37.8zm-4.6-61.4c8.9 5.3 20.5 13.3 26.1 19.1l-7.1 6.5a153.4 153.4 0 00-25.8-20l6.8-5.6zM469.9 112.4c7 6.3 14.8 11.6 22.5 15.1a34.2 34.2 0 00-6.8 8.2 88 88 0 01-15.8-10.7v33.8H460v-43.1c-5.3-5.6-10-12-14-18.4-7.6 30.6-22.4 50.5-41.2 61.2a32.6 32.6 0 00-7.7-7.1 71.4 71.4 0 0029.1-28.4c-4.4-4.2-11.3-9.2-17.6-13.3-1.9 2.6-4 4.9-6 7.1a76.9 76.9 0 00-8-6.3c11.3-10.2 19.7-27.1 24.3-45.5l9.4 1.9c-1.2 4.6-2.6 9-4.2 13.3H441l1.7-.3 6.4 2.2-1.5 8.7 3.7-1.4c2.4 4.3 5.3 8.6 8.8 12.8v-37h9.8v47.2zm-49.5-23.2c-2.1 4.7-4.4 9.1-6.9 13.1 5.9 3.6 12.5 8.1 17.1 12 3.3-7.4 5.8-15.8 7.6-25.1h-17.8zM532.4 127.8c-1.4-3.1-4.9-8.8-8-13.5V159h-9.2v-41.5c-3.8 9.3-8.4 18-13.1 23.9-.9-2.6-3.2-6.5-4.6-8.8 6-7 12.6-19.2 16.4-30h-15.1v-8.9h16.4V79.9L502.3 82c-.3-2.1-1.6-5.4-2.7-7.4a150 150 0 0032.6-8.3l5.4 7.8a98.8 98.8 0 01-13.2 3.9v15.7h14.3v8.9h-14.3v1.4c3.1 3.2 11.8 13.6 13.7 16.3l-5.7 7.5zm48.1 5V159H571v-24.6l-32.3 5.4-1.4-9.1 33.7-5.6v-60h9.4v58.5l11.2-1.8 1.4 8.9-12.5 2.1zM558.1 119a90.4 90.4 0 00-17.1-15.3l6-5.5a95.2 95.2 0 0117.5 14.6l-6.4 6.2zm2.6-27a82.6 82.6 0 00-15.9-14.9l6.3-5.4c5.8 4 12.9 9.9 16.3 14.2l-6.7 6.1zM130.9 78.9c-6.9-9.5-17.8-12.1-27.7-11.7-18.8.8-37.8 14-37.8 45.2 0 28.6 15.6 46.4 40.7 46.4 11.2 0 20.6-4.4 25.7-11.8v9.5h19.7V22.1h-20.6v56.8zm-21.9 5c14.1 0 22.2 10.8 22.2 29 0 13.4-5.6 29.1-22.5 29.1-15.6 0-22.5-14.1-22.5-28.1-.1-7.1 1.6-30 22.8-30"/><path d="M43.3 55.6c2.3 2.6 8.8 6.2 12.7 5.5 5.2-1.2 6-6.5 4.6-9.5 4.3-6.8-3.6-7.7-4.4-11.8.7-.8 2-1.2 3.8-1.4 6.3.1 14.4-2.4 12.9-8.2-.2-.9-1-1.6-2-2.2-.3-.4-.6-.9-.9-1.1-.4-.3-1-.1-1.3-.5-.2-.2-.1-1.1-.1-1.4l-1.6-.4c-.7-1.1-1.5-1.9-3.8-2.4-5-.6-5.9 3.7-8.7 5.7-1.6.8-3.6-.4-3.8-1l-.1-1.5a8 8 0 011.1-2c2-2.8 1.6-4.4 0-7.1-.8-1.3-.7-2.9-1.4-4-.4-.6-1-.9-1.4-1.5-.6-1-.6-2.1-1.4-2.9-.3-.3-.9.2-1.3-.2-.3-.4 0-1-.3-1.4-1.2-1.7-3.9-3-6.1-2.5-4.1.9-7.8 7.2-8 10.7-.1 1.5.5 2.7.8 4.2 1.1 2.9 2.5 4.6 1.4 6.7l-.2.1c-.4 0-1.1.1-2.1-.8-2.1-1.9-3.9-3.8-7.1-3.9l-10.2.8c-2.1.6-2.7 2-3.6 3.2-.9 1.2-2.1 2.2-1.2 3.6-1.7.2-.5 1-2.2 1.9-2.9 1.3-3.2 4.8-1.5 6.4 2.1 1.9 5.8 2.3 8.3 3.8 3.4 1.4 7.1 1.8 11.3.7 0 0 2.3-.8 2.2 1.4-.1 2.2-4.3 1.9-6 2.8-3.2 2.4-3.5 4.8-5.3 7.4-.6 1.4-.3 3.5.9 4.8 2.1 1.9 5.3 1.9 8.6 2.7l1.5.9c2.7-.2 2 2.4 4.2 1.8 1.2-.3 1.8-2.6 2.6-3.4 1-1 1.6-1.3 3.9-3 2.3-1.8 3.2-3.2 3.5-4.2.3-1 .1-2.1 0-2.6s-.2-1.2-.9-1c-.7.2-2.3 1.3-4.2 1.4-2 .1-2.2-1.5-2.2-2.5s0-1.6-.4-1.9c-.5-.3-.2-.6.1-.9.2-.3-.2-.4-.7-.8-.5-.5-.1-.6-.2-1.5-.7-.2-1.8-1.2-1.9-1.9-.1-.7 1.3-1.8 1.7-2.6.4-.8.8-1.4.5-2.4-.4-1.5-1.1-3.1-1.1-4.8 0-1.7.8-3.5.8-3.5s.7 5.6 3.5 9.6c2.9 4.2 8.4 6.6 9.7 8.4 1.1 1.4 2.3 5.8-3 10.2" fill="#f072ab"/><path class="st0" d="M30.3 69.5h20.6v87H30.3z"/><g><path class="st0" d="M192.7 22.1h4.3v24.7h-4.3V22.1zM220.6 22.1h10.3c7.6 0 10.9 5.5 10.9 12.4 0 6.8-3.3 12.4-10.9 12.4h-10.3V22.1zm4.3 21.1h4.2c6.8 0 8.2-3.9 8.2-8.8s-1.5-8.8-8.2-8.8h-4.2v17.6zM291.6 22.1h4.3v9.8h11.2v-9.8h4.3v24.7h-4.3V35.6h-11.2v11.1h-4.3V22.1zM357.3 34.4c0 7.1-4.4 12.9-11.8 12.9s-11.8-5.9-11.8-12.9c0-7.1 4.4-12.9 11.8-12.9s11.8 5.9 11.8 12.9zm-19.4 0c0 4.7 2.2 9.4 7.5 9.4s7.5-4.7 7.5-9.4-2.2-9.4-7.5-9.4c-5.2 0-7.5 4.7-7.5 9.4zM382.3 38.5c0 3.8 2.8 5.3 6.3 5.3 3.8 0 5.2-1.9 5.2-3.7 0-1.9-1-2.7-2.1-3-1.7-.7-4-1.1-7.4-2.1-4.2-1.1-5.5-3.7-5.5-6.3 0-4.9 4.6-7.3 9-7.3 5.2 0 9.5 2.7 9.5 7.9H393c-.2-3.2-2.4-4.4-5.3-4.4-2 0-4.5.7-4.5 3.2 0 1.7 1.2 2.7 2.9 3.2l7.1 1.9c3.2 1 4.8 3.7 4.8 6.3 0 5.5-4.9 7.8-9.8 7.8-5.6 0-10.2-2.7-10.3-8.8h4.4zM420.2 22.1h10.9c7 0 8.4 4.6 8.4 7.6s-1.3 7.6-8.4 7.6h-6.6v9.5h-4.3V22.1zm4.3 11.7h6.3c1.9 0 4.3-1 4.3-4.1 0-3.2-2-4.1-4.3-4.1h-6.4v8.2zM461.5 22.1h4.3v24.7h-4.3V22.1zM487 22.1h20v3.7h-7.9v21h-4.3v-21H487v-3.7zM534.7 22.1h4.6l9.5 24.7h-4.6l-2.3-6.5H532l-2.3 6.5h-4.5l9.5-24.7zm-1.5 14.8h7.5L537 26.3l-3.8 10.6zM569.5 22.1h4.3v21h12.6v3.7h-16.9V22.1z"/></g></svg>