<svg xmlns="http://www.w3.org/2000/svg" viewBox="0 0 99.5 99.5"><path d="M49.8 9c13.3 0 14.8 0 20 .3a27.6 27.6 0 0 1 9.3 1.7 15.3 15.3 0 0 1 5.7 3.7 15.5 15.5 0 0 1 3.8 5.8 27.6 27.6 0 0 1 1.7 9.2c.2 5.2.3 6.8.3 20.1s0 14.9-.3 20.1a27.6 27.6 0 0 1-1.7 9.2 16.6 16.6 0 0 1-9.5 9.5 27.6 27.6 0 0 1-9.2 1.7c-5.3.2-6.8.3-20.1.3s-14.9 0-20.1-.3a27.6 27.6 0 0 1-9.3-1.7 15.5 15.5 0 0 1-5.7-3.7A15.3 15.3 0 0 1 11 79 27.6 27.6 0 0 1 9.3 70C9 64.6 9 63 9 49.8s0-14.9.3-20.1a27.6 27.6 0 0 1 1.7-9.3 15.4 15.4 0 0 1 3.7-5.7 15.4 15.4 0 0 1 5.7-3.7 27.6 27.6 0 0 1 9.3-1.7c5.2-.3 6.8-.3 20-.3m0-9a355 355 0 0 0-20.5.3 36.5 36.5 0 0 0-12 2.3 24.5 24.5 0 0 0-8.8 5.8 24.5 24.5 0 0 0-5.8 8.8 36.5 36.5 0 0 0-2.3 12c-.2 5.4-.3 7-.3 20.6S0 65 .3 70.3a36.5 36.5 0 0 0 2.3 12 24.5 24.5 0 0 0 5.8 8.9 24.7 24.7 0 0 0 8.8 5.7 36.5 36.5 0 0 0 12 2.3c5.4.3 7 .3 20.6.3s15.2 0 20.5-.3a36.5 36.5 0 0 0 12-2.3A25.4 25.4 0 0 0 97 82.4a36.5 36.5 0 0 0 2.3-12.1c.3-5.3.3-7 .3-20.5s0-15.2-.3-20.5A36.5 36.5 0 0 0 97 17.2a24.7 24.7 0 0 0-5.7-8.8 24.5 24.5 0 0 0-8.8-5.8A36.5 36.5 0 0 0 70.3.3C65 .1 63.3 0 49.8 0z"/><path d="M49.8 24.2a25.6 25.6 0 1 0 25.5 25.6 25.6 25.6 0 0 0-25.5-25.6zm0 42.2a16.6 16.6 0 1 1 16.6-16.6 16.6 16.6 0 0 1-16.6 16.6z"/><circle cx="76.3" cy="23.2" r="6"/></svg>