<svg xmlns="http://www.w3.org/2000/svg" viewBox="0 0 48 48"><path d="M47.9 14.1a17.6 17.6 0 0 0-1.2-5.8A11.9 11.9 0 0 0 44 4a11.6 11.6 0 0 0-4.3-2.8 17.8 17.8 0 0 0-5.8-1C31.3 0 30.5 0 24 0s-7.3 0-9.9.1a17.8 17.8 0 0 0-5.8 1.2A11.6 11.6 0 0 0 4 4a11.6 11.6 0 0 0-2.7 4.3A17.8 17.8 0 0 0 0 14L0 24l.1 9.9a17.8 17.8 0 0 0 1.2 5.8A11.6 11.6 0 0 0 4 44a11.9 11.9 0 0 0 4.3 2.8 17.6 17.6 0 0 0 5.8 1c2.5.2 3.4.2 9.9.2s7.3 0 9.9-.1a17.6 17.6 0 0 0 5.8-1.1 12.3 12.3 0 0 0 7-7 17.6 17.6 0 0 0 1.1-5.9c.2-2.6.2-3.4.2-9.9s0-7.3-.1-9.9zm-4.4 19.6a13 13 0 0 1-.8 4.5 8 8 0 0 1-4.6 4.5 13 13 0 0 1-4.4.8c-2.5.2-3.3.2-9.7.2s-7.2 0-9.7-.2a13 13 0 0 1-4.5-.8A7.4 7.4 0 0 1 7.1 41a7.5 7.5 0 0 1-1.8-2.7 13.2 13.2 0 0 1-.8-4.5c-.2-2.5-.2-3.3-.2-9.7s0-7.2.2-9.7a13.2 13.2 0 0 1 .8-4.4A7.4 7.4 0 0 1 7 7a7.4 7.4 0 0 1 2.7-1.8 13.2 13.2 0 0 1 4.5-.8c2.5-.1 3.3-.2 9.7-.2s7.2 0 9.7.2a13.2 13.2 0 0 1 4.4.8A7.5 7.5 0 0 1 41 7a7.4 7.4 0 0 1 1.8 2.8 13 13 0 0 1 .8 4.4c.1 2.5.2 3.3.2 9.7l-.2 9.7zM24 11.7A12.3 12.3 0 1 0 36.3 24 12.3 12.3 0 0 0 24 11.7zM24 32a8 8 0 1 1 8-8 8 8 0 0 1-8 8zM36.8 8.3a2.9 2.9 0 1 0 2.9 2.9 2.9 2.9 0 0 0-2.9-2.9z" fill="#fff"/></svg>