<svg xmlns="http://www.w3.org/2000/svg" viewBox="0 0 125.1 87"><defs><style>.cls-1{fill:#d3b54f}</style></defs><path class="cls-1" d="M79.9 0H5.3A5.3 5.3 0 0 0 0 5.3v56.5a5.3 5.3 0 0 0 5.3 5.4h21c1.6 2 4.8 6.9 3.7 9.2-.4 1-1.7 1.4-3.6 1.4-10.6 0-11 3.8-11 4.2v5h54.4v-6.5l-.3-.2c-.2-.1-3.3-2.5-11.1-2.5-1.7 0-2-.6-2.2-.9-1-1.9 1.7-6.8 3.7-9.7h20a5.3 5.3 0 0 0 5.3-5.4V5.4A5.3 5.3 0 0 0 80 0zm-25 77.6c.6 1.2 1.8 1.8 3.5 1.8 6 0 9 1.4 9.9 2v4.1H17v-3.4c0-.7 2-2.7 9.4-2.7 2.6 0 4.3-.8 5-2.3 1.4-2.9-1.5-7.6-3.1-9.9H58c-1.6 2.4-4.7 7.7-3.2 10.4zm25-12H5.3a3.8 3.8 0 0 1-3.8-3.8V5.4a3.8 3.8 0 0 1 3.8-3.9H80a3.8 3.8 0 0 1 3.8 3.9v56.4a3.8 3.8 0 0 1-3.8 3.8zM4.6 55.8h76V5.6h-76zM6 7.1h73v47.2h-73zM42.6 59a2.5 2.5 0 1 0 2.5 2.5 2.5 2.5 0 0 0-2.5-2.5zM116.4 45.6H109a.7.7 0 1 0 0 1.4h7.3a.7.7 0 0 0 .7-.7.7.7 0 0 0-.7-.7zm5 0h-.7a.7.7 0 1 0 0 1.4h.8a.7.7 0 0 0 .7-.7.7.7 0 0 0-.7-.7zm-7.7 34.8h-1.8a2 2 0 0 0-2 2v.3a2 2 0 0 0 2 2h1.8a2 2 0 0 0 2-2v-.3a2 2 0 0 0-2-2zm.5 2.4a.6.6 0 0 1-.5.5h-1.8a.6.6 0 0 1-.6-.6v-.3a.6.6 0 0 1 .6-.6h1.8a.6.6 0 0 1 .5.6zm10.9-34.3V46a2.6 2.6 0 0 0-2.6-2.6H103a2.6 2.6 0 0 0-2.6 2.6v38.3a2.6 2.6 0 0 0 2.6 2.6h19.4a2.6 2.6 0 0 0 2.6-2.6V79zM101.9 46a1.2 1.2 0 0 1 1.2-1.2h19.4a1.2 1.2 0 0 1 1.1 1.2v1.7H102zm0 3.2h21.7v29H102zm20.6 36.2H103a1.2 1.2 0 0 1-1.2-1.1v-4.6h21.7v4.6a1.2 1.2 0 0 1-1.1 1.2z"/></svg>