<svg xmlns="http://www.w3.org/2000/svg" viewBox="0 0 72 117"><path d="M62 81a9 9 0 0 0 3.6-.8A12 12 0 0 0 72 73a.9.9 0 0 0-1.3-1c-1.8 1.2-4.6 1.2-7.4.5a32.7 32.7 0 0 0 2.6-5.3C67.9 62 67.5 44 67 31v-1.4A29.2 29.2 0 0 0 58.9 10 27.5 27.5 0 0 0 33 .2c-11.7 1.3-19.7 7-24.5 17.6S5.3 50.2 5.9 58.5l.1 2.8c0 5 2.7 14.4 9.9 19.6l-2.2.9C10.3 83.3 6.2 85 3 88.2s-3.1 14.4-3 22.5c.2 5.8 3 6 4.4 6l60.4.3h2a4.4 4.4 0 0 0 3.2-1 4.9 4.9 0 0 0 1.1-3.7v-1.5c0-5.7.2-17.6-3-22.4-2.7-4.4-8.5-6.3-12-7.3l1.3-1.3A11 11 0 0 0 62 81zm-8.2-.5a12.4 12.4 0 0 1-2.1-1.1 7.1 7.1 0 0 0-4-1.3v-.7a5.8 5.8 0 0 1 0-1.9c2.2-.7 4.2.7 6.4 2.3L56 79a16.8 16.8 0 0 1-1.9 1.5zm15.6-6.2a9.5 9.5 0 0 1-4.5 4.3 8.3 8.3 0 0 1-6.9-.4 20.7 20.7 0 0 1-2.8-1.8 12.8 12.8 0 0 0-5.6-2.8c2-1.6 5.2-3.5 8.2-1.6 3.3 2 8 3.3 11.6 2.3zm-61.6-13l-.2-3c-.6-8-2-29.7 2.6-39.8S22.2 3.2 33.3 2a25.8 25.8 0 0 1 24.2 9c5.3 6 7.6 11.6 7.8 18.7V31c.3 7.5 1 30.1-1.1 35.5a31 31 0 0 1-2.7 5.4 17.2 17.2 0 0 1-2.8-1.4c-3.7-2.3-7.8-.5-10.8 2.3a2.3 2.3 0 0 0-1.4-2 3 3 0 0 0-1.6 0v-2.3a23 23 0 0 0 9.2-7.5 24.2 24.2 0 0 0 2.5-4.5c2-1 6.6-4 7-8.4.2-3.5-.7-6-2.5-6.7a2.5 2.5 0 0 0-2.2.5c0-2.7-.2-5.5-.4-8.6a.9.9 0 0 0-.8-.8l-5-.8C42 30.2 25.7 28 22.2 20.3a.9.9 0 0 0-1.6.2c-.9 5.8-2.9 10-5.8 12.5a.8.8 0 0 0-.3.7l-.1 2.5C14 44 13.8 53.8 17 59a26.5 26.5 0 0 0 9.8 9.2v2.3a2.4 2.4 0 0 0-1.5.5 2.5 2.5 0 0 0-.8 2.4v.4a5 5 0 0 1-.2 2.9v.3a7 7 0 0 0-4.3 1.6 13.6 13.6 0 0 1-2.3 1.4 24 24 0 0 1-10-18.7zm38.1 16.2a7.1 7.1 0 0 1 0 1.8c-1.7 1.1-14.7 3-19.2-.6h-.1a1.2 1.2 0 0 1-.6-1.5 6.7 6.7 0 0 0 .3-3.6v-.4a1 1 0 0 1 0-.8c.2-.1.7-.2 1.7.2a21.7 21.7 0 0 0 8.6 1.5 35.6 35.6 0 0 0 7.1-1.2 16 16 0 0 1 2.2-.4c.4.2.5 1.3.1 2.5a7 7 0 0 0 0 2.5zm-7 5c-.9 3.3-2.4 7-3.1 7.8-1-.8-2.3-5.3-3.1-7.8v-.1l3.2.1H39zm20-38c.6-1 1.2-1.6 1.7-1.4.6.2 1.5 1.8 1.2 4.8-.2 2.7-2.5 4.8-4.3 6a37.5 37.5 0 0 0 1.3-9.4zM52.6 60a23.7 23.7 0 0 1-16.8 9.2c-5.2 0-13.3-4.4-17.4-11-2.9-5-2.6-14.4-2.4-22V34c2.8-2.5 4.7-6.2 5.8-11 5.3 6.8 19.8 8.9 30.6 10.4l4.3.6c.9 12 .4 19.4-4.1 26zM35.8 71a22 22 0 0 0 7.4-1.7v2a33.6 33.6 0 0 1-6.7 1 20 20 0 0 1-8-1.3V69a18.2 18.2 0 0 0 7.3 1.9zm31 18.3c2.8 4.5 2.7 16.4 2.7 21.5v1.6a3.6 3.6 0 0 1-.6 2.4c-.5.5-1.6.5-3 .4h-1L4.4 115c-1.4 0-2.6-.2-2.7-4.3-.3-12.1.5-19.3 2.4-21.3 2.8-2.9 6.7-4.5 10.2-6A29.2 29.2 0 0 0 21 80c1.4-1.1 3-1.4 3.3-1.2a1 1 0 0 0 .3.2 4 4 0 0 0 1 1 11.6 11.6 0 0 0 5.1 2l.3 1c2 6.2 3 9 4.8 9.1 2.3 0 4.6-8.5 5-9.9a27.8 27.8 0 0 0 4.8-1c1.2-.3 1.7-.7 1.9-1.2a.3.3 0 0 0 0-.1 5.3 5.3 0 0 1 3.2 1 13.3 13.3 0 0 0 2.5 1.2l1.7.5c3.3 1 9.3 2.7 11.9 6.7z" fill="#d3b54f"/></svg>