<svg xmlns="http://www.w3.org/2000/svg" viewBox="0 0 76 117"><defs><style>.cls-1,.cls-2{fill:#d3b54f}.cls-2{fill-rule:evenodd}</style></defs><path class="cls-1" d="M75.2 15.4H52.5v-3.7a.8.8 0 0 0-.8-.8H42V4.2a4 4 0 1 0-8 0v6.7h-9.7a.8.8 0 0 0-.8.8v3.7H.8a.8.8 0 0 0-.8.8v100a.8.8 0 0 0 .8.9h74.4a.8.8 0 0 0 .8-.9v-100a.8.8 0 0 0-.8-.8zm-50.9 8.2h27.4a.8.8 0 0 0 .8-.8v-2h18.3v88.6H5.2V20.7h18.3v2.1a.8.8 0 0 0 .8.8zM35.5 4.3a2.4 2.4 0 1 1 4.8 0v6.7h-4.8zm-10.4 8.4H51V22H25zm49.3 102.8H1.6V17h21.9v2.1h-19a.8.8 0 0 0-.8.8v90.2a.7.7 0 0 0 .7.8h67.2a.7.7 0 0 0 .7-.8V20a.8.8 0 0 0-.7-.8h-19v-2.1h21.8z"/><path class="cls-1" d="M19 41.6a1 1 0 0 1-.7-.3l-3.8-3.7a1 1 0 0 1 0-1.4 1 1 0 0 1 1.4 0l3.1 3 6.9-6.8a1 1 0 0 1 1.4 0 1 1 0 0 1 0 1.4l-7.6 7.6a1 1 0 0 1-.7.2z"/><path class="cls-2" d="M34.2 34h28.5v1.9H34.2z"/><path class="cls-1" d="M19 60.6a1 1 0 0 1-.7-.3l-3.8-3.7a1 1 0 0 1 0-1.4 1 1 0 0 1 1.4 0l3.1 3 6.9-6.8a1 1 0 0 1 1.4 0 1 1 0 0 1 0 1.4l-7.6 7.6a1 1 0 0 1-.7.2z"/><path class="cls-2" d="M34.2 55h28.5v1.9H34.2z"/><path class="cls-1" d="M19 81.6a1 1 0 0 1-.7-.2l-3.8-3.8a1 1 0 0 1 0-1.4 1 1 0 0 1 1.4 0l3.1 3 6.9-6.8a1 1 0 0 1 1.4 0 1 1 0 0 1 0 1.4l-7.6 7.5a1 1 0 0 1-.7.3z"/><path class="cls-2" d="M34.2 75h28.5v1.9H34.2z"/><path class="cls-1" d="M19 100.6a1 1 0 0 1-.7-.2l-3.8-3.8a1 1 0 0 1 0-1.4 1 1 0 0 1 1.4 0l3.1 3 6.9-6.8a1 1 0 0 1 1.4 0 1 1 0 0 1 0 1.4l-7.6 7.6a1 1 0 0 1-.7.2z"/><path class="cls-2" d="M34.2 96h28.5v1.9H34.2z"/></svg>