<svg xmlns="http://www.w3.org/2000/svg" viewBox="0 0 105 120"><path d="M54.4 95l-4.5-1.3-5.2-1.6c.2-3.4 0-7.3 0-8.5a31.4 31.4 0 0 0 7.2-5 1 1 0 0 0 0-1.3.8.8 0 0 0-1.2 0A28.4 28.4 0 0 1 33.4 85h-.2c-6.6 0-16.6-6.8-20-13.5-3.3-6.6-3.4-11-3.2-13 .8-6.7 6.6-13 9-14 .3-.3 1-.6 1.9-1 4.1-2 12.8-6.3 18.4-10.2a.9.9 0 0 0 .2 0c4 1.7 9.9 5.3 13 9.2s6.7 9.7 5.2 18a.9.9 0 0 0 .7 1h.1a.9.9 0 0 0 .9-.7 24.4 24.4 0 0 0 .3-2.6h.7c1.5 0 4-.2 4.8-1.8 1.1-2 2-12.2 1.8-16 0-2.6-1.8-4.3-4-5.7a1 1 0 0 0 0-.6c-.4-.8-.9-4.3-1.5-9.3-.8-7.4-7-9.2-10.4-10.2v-.7c-.8-4.8-3-6-4.5-6.7A3.4 3.4 0 0 1 45 5.9C43.3 3 38-2 29.6.8 23.1 2.8 11.4 8 6.1 20.3A54.7 54.7 0 0 0 .3 49.5c.9 7 2 10.8 4 12.2a9.4 9.4 0 0 0 4.3 1.6 32.5 32.5 0 0 0 3 9c2.2 4.1 6.5 8.2 11 11V93c-2.4.6-10.5 2.8-13.5 4-3.8 1.5-7.2 3.4-7.6 9.2C1 112.5.7 117.5.9 119a.9.9 0 0 0 .8.8l51.3.2h12.7a.9.9 0 0 0 .8-1c.2-9.5-.7-15.7-2.9-18.3-1.6-2-5.1-4.2-9.2-5.6zm-3.2-78.6c4 1.2 8 3 8.6 8.5l1.2 8.6-1.5-.8-1.5-.8a.9.9 0 0 0-1.2.4 1 1 0 0 0 .4 1.2l1.5.8c3.3 1.7 6.5 3.4 6.6 6.1.2 4-.8 13.6-1.6 15-.4.9-2.5 1-4 1 0-6.7-3-11.5-5.8-15-3.2-4-8.7-7.5-13-9.4a20 20 0 0 0 1.8-1.6l.4-.4c4.3-4.5 7.9-8 8-13.6zM8.3 58.2a16.5 16.5 0 0 0 0 3.2 7.6 7.6 0 0 1-3-1.1c-1.4-1-2.5-4.7-3.2-11A52.8 52.8 0 0 1 7.7 21 35.8 35.8 0 0 1 30.1 2.5a13.7 13.7 0 0 1 4.2-.7A10.8 10.8 0 0 1 43 6c-5.5-1-10.4 2.6-14 5.2l-.6.5a1 1 0 0 0-.2 1.3.9.9 0 0 0 .7.3.8.8 0 0 0 .5-.1l.6-.5c3.9-2.9 8.7-6.4 14-4.5a.8.8 0 0 0 .7 0l1 .6c1.5.7 3 1.4 3.5 5.4.9 6-2.4 9.4-7.4 14.6l-.4.3c-4.3 4.5-16.2 10.2-21.3 12.7l-2 1c-2.8 1.4-9 8.2-9.8 15.4zm56.5 60c-6.7 0-52.1 0-62.2-.2 0-2.3.3-7.9.6-11.7.3-4.8 3-6.3 6.5-7.7s13.8-4 13.9-4a.9.9 0 0 0 .6-1l.2-9.4a20.3 20.3 0 0 0 8.8 2.5h.3a25.4 25.4 0 0 0 9.5-2.3v8.2a.9.9 0 0 0 .3.7c.4.5 1.8.9 6.2 2.2l4.3 1.3a21 21 0 0 1 8.5 5c1.8 2.1 2.6 8 2.5 16.4zm40-18.8l-3.2-2.7a.8.8 0 0 0-1.2.1l-4.6 5.6a1.2 1.2 0 0 0-.1-.1l-3.3-2.9 6.6-7.9a1 1 0 0 0-.1-1.2.8.8 0 0 0-1.2 0l-2 2.6a.3.3 0 0 0-.1 0l-26-22.7a.8.8 0 0 0-1.3 0l-1.7 2.2-7.3-6.3a.8.8 0 0 0-1.2.1l-1.6 2-6.8-6a.8.8 0 0 0-1.2.2.9.9 0 0 0 .1 1.2l6.8 5.9-1.6 2a1 1 0 0 0 0 1.2l7.3 6.3-1.8 2.1a1 1 0 0 0 .1 1.3l26 22.6h.1l-2 2.6a1 1 0 0 0 0 1.2.9.9 0 0 0 1.3-.1l6.5-8 3.2 2.9a.7.7 0 0 0 .2.1l-4.6 5.6a1 1 0 0 0 .1 1.3l3 2.6a.9.9 0 0 0 1.3 0l10.3-12.6a1 1 0 0 0 0-1.2zm-49-27.5l3-3.8 6.6 5.7-3.1 3.8zm31 31.8a.2.2 0 0 0-.2 0l-6.2-5.4 2.4-3a1 1 0 0 0 0-1.2.8.8 0 0 0-1.3.1l-2.5 3-4.3-3.9 2.3-2.9a1 1 0 0 0 0-1.2.8.8 0 0 0-1.3 0l-2.4 3-4.3-3.9 2.4-2.8a1 1 0 0 0-.1-1.3.9.9 0 0 0-1.2.1l-2.4 2.9-6.4-5.6 7.8-9.5 25.3 22zm7 7.6l-1.8-1.5 9.2-11.1 1.7 1.5z" fill="#d3b54f"/></svg>