<svg xmlns="http://www.w3.org/2000/svg" viewBox="0 0 446.9 386.8"><defs><style>.cls-1{fill:#d0a813}.cls-2{fill:#cfa618}</style></defs><path class="cls-1" d="M113.4 9.4v42.4h-10V9.4H90v-9h36.8v9zM180.3 46.5a19.2 19.2 0 0 1-6 4.2 19.6 19.6 0 0 1-7.8 1.4 19.9 19.9 0 0 1-7.7-1.4 20.3 20.3 0 0 1-6.5-4.6 13.7 13.7 0 0 1-4-7.3 78.8 78.8 0 0 1-.7-12.7 75.2 75.2 0 0 1 .8-12.7 13.9 13.9 0 0 1 3.9-7.5 20.6 20.6 0 0 1 6.5-4.5 21.8 21.8 0 0 1 15.4 0 20.4 20.4 0 0 1 6.5 4.5 14 14 0 0 1 4 7.5 72.5 72.5 0 0 1 .8 12.7 74.5 74.5 0 0 1-.8 12.7 14.8 14.8 0 0 1-4.3 7.7zM173 11.7a8 8 0 0 0-6.4-2.8 9 9 0 0 0-3.7.7 8.9 8.9 0 0 0-3 2.2A8.4 8.4 0 0 0 158 16a70.8 70.8 0 0 0-.4 10 74.5 74.5 0 0 0 .4 10.2 9.6 9.6 0 0 0 2.4 4.8q2 2.2 6.1 2.2t6-2.2a10.5 10.5 0 0 0 2.4-5 61.4 61.4 0 0 0 .5-10 65.2 65.2 0 0 0-.5-10 9.2 9.2 0 0 0-2-4.3zM229.7 9.4v42.4h-10V9.4h-13.4v-9H243v9zM294.8 51.8l-3-9.2h-18.3l-3 9.2H260L278.6.4h7.9l18.7 51.4zm-12-36.2l-6.5 18.6h12.8zM326 51.8V.4h10v42.4h23.2v9zM82.4 151.8H60.9v-51.4h20.6q7.4 0 11.7 3.9t4.2 10.5a11.3 11.3 0 0 1-2 6.7 11.5 11.5 0 0 1-4.4 4 13 13 0 0 1 5 4 12.1 12.1 0 0 1 2 7.5q0 7-4.3 10.9t-11.3 3.9zm-1.7-42.4H71v11.8h9.8a7 7 0 0 0 4.9-1.6 6.2 6.2 0 0 0 0-8.6 7 7 0 0 0-5-1.6zm.7 20.8H71v12.6h10.4a6.5 6.5 0 0 0 5-1.8 6.9 6.9 0 0 0 0-9 6.6 6.6 0 0 0-5-1.8zM122.7 151.8v-51.4h33.8v9h-23.8v12H153v8.9h-20.3v12.5h23.8v9zM209.8 151.8l-3-9.2h-18.2l-3.1 9.2h-10.4l18.6-51.4h7.8l18.8 51.4zm-12-36.3l-6.4 18.7h12.7zM259 152.1a19.1 19.1 0 0 1-13.4-5 16.9 16.9 0 0 1-5.4-13v-33.7h10v33.4a9.7 9.7 0 0 0 2.4 6.9 8.5 8.5 0 0 0 6.5 2.5 8.7 8.7 0 0 0 6.5-2.5 9.6 9.6 0 0 0 2.4-7v-33.3h10v33.7a17 17 0 0 1-5.4 13 19.1 19.1 0 0 1-13.5 5zM323 109.4v42.4h-10v-42.4h-13.3v-9h36.8v9zM378.6 130.7v21h-10v-21l-15.3-30.3H364l9.6 20.7 9.4-20.7H394zM43.7 252.1a33.4 33.4 0 0 1-10.6-1.5 20.6 20.6 0 0 1-8.2-5.2l6.5-6.5a13.3 13.3 0 0 0 5.4 3.3 22.7 22.7 0 0 0 7 1q9 0 9-6.3c0-2-.3-3.2-1-4a8 8 0 0 0-2.3-1.5 10.6 10.6 0 0 0-2.7-.7l-6.2-.8q-6.6-.9-10.1-4.5t-3.5-9.8a14.4 14.4 0 0 1 4.8-11.3q4.7-4.3 13-4.3a28.4 28.4 0 0 1 9.3 1.4 19.5 19.5 0 0 1 7.3 4.6l-6.4 6.2a11.7 11.7 0 0 0-4.9-2.7 20.6 20.6 0 0 0-5.6-.8 8.6 8.6 0 0 0-6 1.8 6 6 0 0 0-2 4.7 5.7 5.7 0 0 0 .4 2 5.9 5.9 0 0 0 1.6 2 8.1 8.1 0 0 0 4.4 1.6l6 .9q6.4 1 9.1 3.4a13 13 0 0 1 3.7 5.2 19 19 0 0 1 1 6.2 13.7 13.7 0 0 1-5.4 11.5 21.7 21.7 0 0 1-13.6 4.1zM104.6 252.1a19.1 19.1 0 0 1-13.5-5 16.9 16.9 0 0 1-5.4-13v-33.7h10v33.4a9.6 9.6 0 0 0 2.4 6.9 8.5 8.5 0 0 0 6.5 2.5 8.7 8.7 0 0 0 6.5-2.5 9.6 9.6 0 0 0 2.4-7v-33.3h10v33.7a17 17 0 0 1-5.4 13 19.1 19.1 0 0 1-13.5 5zM168.9 232.4H159v19.4h-10v-51.4h19.9q7.7 0 12.3 4.6a16.4 16.4 0 0 1 0 22.8q-4.6 4.6-12.3 4.6zm-.5-23H159v14h9.4a7.6 7.6 0 0 0 5.4-1.9 6.7 6.7 0 0 0 2-5 6.8 6.8 0 0 0-2-5.2 7.5 7.5 0 0 0-5.4-2zM228.5 232.4h-9.9v19.4h-10v-51.4h19.9q7.8 0 12.3 4.6a16.4 16.4 0 0 1 0 22.8q-4.6 4.6-12.3 4.6zm-.5-23h-9.4v14h9.4a7.6 7.6 0 0 0 5.4-1.9 6.6 6.6 0 0 0 2-5 6.8 6.8 0 0 0-2-5.2 7.5 7.5 0 0 0-5.4-2zM299.3 246.5a19.2 19.2 0 0 1-6.2 4.2 19.5 19.5 0 0 1-7.7 1.4 19.8 19.8 0 0 1-7.7-1.4 20.5 20.5 0 0 1-6.5-4.5 13.6 13.6 0 0 1-4-7.4 78.8 78.8 0 0 1-.7-12.7 75.2 75.2 0 0 1 .8-12.7 13.8 13.8 0 0 1 4-7.5 20.6 20.6 0 0 1 6.4-4.5 21.8 21.8 0 0 1 15.4 0 20.4 20.4 0 0 1 6.5 4.5 14 14 0 0 1 4 7.5 72.5 72.5 0 0 1 .8 12.7 75.6 75.6 0 0 1-.8 12.7 14.7 14.7 0 0 1-4.4 7.7zm-7.5-34.8a8 8 0 0 0-6.4-2.8 9 9 0 0 0-3.7.8 8.8 8.8 0 0 0-3 2.1 8.2 8.2 0 0 0-1.7 4.2 70.3 70.3 0 0 0-.5 10 74 74 0 0 0 .5 10.1 9.5 9.5 0 0 0 2.4 4.8q2 2.2 6 2.2t6-2.2a10.6 10.6 0 0 0 2.5-5 61.4 61.4 0 0 0 .5-9.9 65.2 65.2 0 0 0-.5-10 9.2 9.2 0 0 0-2-4.3zM356.2 251.8l-10-20.6H339v20.6h-10v-51.4h20q7.7 0 12.2 4.5a15.2 15.2 0 0 1 4.5 11.2 13.7 13.7 0 0 1-2.6 8.6 14.3 14.3 0 0 1-6.7 4.9l11.4 22.2zm-7.8-42.4H339v13.4h9.4a7.5 7.5 0 0 0 5.3-1.8 7 7 0 0 0 0-9.8 7.5 7.5 0 0 0-5.3-1.8zM410 209.4v42.4h-10v-42.4h-13.3v-9h36.8v9z"/><path class="cls-2" d="M26.3 333.9c-5.5-1-9.4-4.3-11-9.4H15c-2.1 6.2-7.7 9-14.3 9.3v-.3c4.6-.9 9.4-4.6 10.8-9H4.5a15.3 15.3 0 0 0-3.5.2l-.5-1.1 4.6.2h6.7a12.8 12.8 0 0 0 .4-4.4h-8a16 16 0 0 0-3.4.3l-.5-1.2 4.5.2h7.6v-3.8h-5a15.1 15.1 0 0 0-3.5.2l-.5-1.2c1.5.2 3 .2 4.5.2h4.5v-3.3H5.5a18.7 18.7 0 0 0-3.4.2l-.5-1.1 4.5.2h3.2c-.3-.3-.4-.5-.9-1.6A7 7 0 0 0 6 305v-.3c1.5.2 6.3.8 6.3 3.7a2 2 0 0 1-.7 1.6h4.2a17.7 17.7 0 0 0 1.7-5.9l4 2a.7.7 0 0 1 .5.5c0 .6-.5.6-1.3.7a37 37 0 0 1-3.8 2.7h5.8l1.4-2.2c.1-.1.3-.3.5-.3a1 1 0 0 1 .6.3l2.2 2.1c0 .1.3.3.3.5s-.3.4-.5.4H15.8v3.3h4.5l1.2-1.8c.2-.3.3-.4.5-.4a1 1 0 0 1 .6.3l2 1.8c0 .1.3.2.3.5s-.3.3-.5.3h-8.6v3.8h8l1.5-2.1c.1-.2.3-.4.5-.4s.4.2.6.3l2.4 2.1a.7.7 0 0 1 .3.5c0 .3-.3.4-.5.4H14.3l1.9.4c.5.1.6.3.6.5 0 .4-.3.6-1.1 1a12.1 12.1 0 0 1-.4 2.4h8.1l1.4-2c.2-.3.3-.4.5-.4a1.3 1.3 0 0 1 .6.3l2.3 2c.1.1.4.3.4.5s-.4.4-.5.4H15.9c1.7 2.3 5.6 5.3 13.4 5.5v.3a6.4 6.4 0 0 0-3 3.5zM60 325.8a14.3 14.3 0 0 1-3.3-1.4c0 .3-.4.6-.8 1l.3 6.4c0 .6 0 2.1-2.2 2.1-1.4 0-1.3-1.2-1.3-1.7h-9.6c0 .6.1 2-2 2-1.3 0-1.3-.8-1.3-1.3l.1-4.3v-4.4a32.5 32.5 0 0 1-6.4 2.5v-.3a31.6 31.6 0 0 0 12.7-12.3l3.7 1.5a.7.7 0 0 1 .5.6c0 .5-.4.6-.7.6a25.4 25.4 0 0 0 13.2 5.3v.3a5.3 5.3 0 0 0-2.9 3.4zm1.1-14.2a4.2 4.2 0 0 0-1.6.1l-3.2 1.3-.1-.2a31.4 31.4 0 0 0 1.2-3.3H38.7c0 4.7-2.9 4.7-3 4.7a1.6 1.6 0 0 1-1.7-1.7c0-.9.4-1.1 1.7-2a6.6 6.6 0 0 0 2.4-3.2h.2a9.1 9.1 0 0 1 .3 1.5h7.8a14 14 0 0 0-.6-4l4.4.9c.3 0 .5.1.5.4 0 .4-.8.9-1 1v1.6h7.5l1-1.2.5-.3c.1 0 .3 0 .6.4l2.9 2.7a.7.7 0 0 1 .1.4c0 .9-.8.9-1.1.9zm-16.1 2a22.5 22.5 0 0 1-9.3 5.3l-.1-.2c4.2-3.1 6.6-6.9 7-8.3l3.6 2.2a.5.5 0 0 1 .3.4c0 .5-.5.5-1.5.6zm4 3.6a31.3 31.3 0 0 1-7 5.9l1.6.7h8.9l1-1.2a1.1 1.1 0 0 1 .3-.3 24 24 0 0 1-4.8-5zm3.7 7.3h-9.6v7h9.6zm4.5-6.5c-1 0-1.3-.4-2.3-1.8a17.4 17.4 0 0 0-4.6-4.6v-.3c5 .9 8.6 2.7 8.6 5A1.7 1.7 0 0 1 57 318zM95.6 325.4h-7.3v4.8a3.3 3.3 0 0 1-1.2 3 5.6 5.6 0 0 1-3.6 1.1c-.3-1.8-.8-2.7-3.4-4.1v-.2l3.4.2c1 0 1.3-.1 1.3-.7v-4.1H71.3a16.1 16.1 0 0 0-3.5.2l-.5-1.2c2 .2 4.2.2 4.5.2h13a11.3 11.3 0 0 0-.4-3.3l4.2.9c.2 0 .6.2.6.5s-.5.6-1 .8v1h3l1.3-1.9.5-.4a1 1 0 0 1 .6.4l2.2 2a.6.6 0 0 1 .3.4c0 .3-.3.4-.5.4zm-.9-16H83.3v2.9h5.2l1-1.3c0-.2.2-.4.4-.4a1 1 0 0 1 .5.3l2.5 1.6c.2 0 .4.2.4.4s-.6.7-1.4 1.2l.2 6.2c0 .9-.1 1.1-.6 1.5a2.9 2.9 0 0 1-1.8.6c-1.2 0-1.1-.7-1-1.5H75.2c0 1.6-1.1 1.9-2 1.9s-1.3-.3-1.3-1v-1.9-2.7a30.2 30.2 0 0 0-.3-6.2l3.6 1.3h5v-2.9h-7.6a16.4 16.4 0 0 0-3.4.3l-.6-1.2 4.6.2h7a10 10 0 0 0-.7-4l3.9.8c.8.2 1 .3 1 .6s-.7.8-1 1v1.6h6.5l1.4-2c.2-.1.3-.3.5-.3s.4.1.6.3l2.5 1.9a.7.7 0 0 1 .4.5c-.1.3-.4.3-.6.3zM77.5 332c-1.3 0-1.4-.6-1.9-2a9.7 9.7 0 0 0-2.1-3.8l.1-.2c5.7.8 5.8 4 5.8 4a2 2 0 0 1-1.9 2zm2.7-18.9h-5v3h5zm0 3.8h-5v3.3h5zm8.4-3.8h-5.3v3h5.3zm0 3.8h-5.3v3.3h5.3zM113.8 309v8c0 1.7-1.7 1.7-2 1.7-.7 0-1.1-.3-1-1.6H106v8.7l.1 6a2 2 0 0 1-2.3 2.3c-1.1 0-1.1-.8-1.1-1.2v-1.2l.2-16.8a88 88 0 0 0-.4-9.3l3.5 1.4h4.5l.9-1c.2-.3.4-.4.6-.4a.9.9 0 0 1 .5.2l1.7 1.3c.4.3.5.6.5.8s0 .2-1 1.1zm-3-1.3H106v3.8h4.8zm0 4.5H106v4.1h4.8zm16.9-3.2v20.1c0 1.8 0 4.6-4.4 5a5.4 5.4 0 0 0-3.3-4.2v-.3a28 28 0 0 0 3.7.3c.4 0 .6 0 .7-.4v-4.2-8.2h-5c0 1-.6 1.5-2 1.5-.5 0-1.2-.2-1.2-1l.1-2.8v-3.4a47.8 47.8 0 0 0-.2-6l3.5 1.6h4.6l1-1.3s.2-.4.5-.4a1 1 0 0 1 .6.3l2 1.3c.3.2.5.4.5.7s-.3.7-1 1.4zm-3.2-1.3h-5v3.8h5zm0 4.5h-5v4.1h5zM148.2 331.3v-.2c4.7-1.8 10-5.6 10-12.5 0-4.7-2.9-8.6-9-8.6a4.2 4.2 0 0 0-1.6.2c2.8 1.5 2.8 2.9 2.8 3.3 0 1.1-2.7 7-4.8 10.5-2.5 4-3.7 5-4.8 5s-1.3-.4-2.3-2a4.2 4.2 0 0 0-1.3-1.3 5 5 0 0 1-1.4-3.9c0-7 6-12.9 14-12.9 6.2 0 12.2 3.7 12.2 10.5 0 10-11.2 11.6-13.8 12zm-1.7-21a12.2 12.2 0 0 0-8 11c0 1.4.6 4.5 2 4.5s2.8-3.2 4.1-6c.8-1.5 2.7-5.4 2.7-7.3a3.1 3.1 0 0 0-.8-2.1zM192.9 314.6c-.6.5-.8.6-1.3 3l-1.4 7a2.3 2.3 0 0 1 1.5 1.8c0 1-.7 1-1.1 1h-5.4a27.8 27.8 0 0 0-8.1 1l-1.9.4c-1.2 0-3.1-2.6-3.1-4a4.2 4.2 0 0 1 .3-1.6 5.1 5.1 0 0 0 4.1 2.3c1.4 0 8.5-.5 11-.8 1-6.5 1.3-8.7 1.3-10.4 0-.4-.2-.6-.7-.6a50 50 0 0 0-10.9 1.5 15 15 0 0 1-1.5.4c-1.3 0-3.3-2.3-3.3-4.2a5.6 5.6 0 0 1 .2-1.2 5.3 5.3 0 0 0 4.2 2.2 88.7 88.7 0 0 0 12-1 14 14 0 0 1 1.6-.9c.5 0 3.2 2.3 3.2 3.1 0 .5-.3.6-.7 1zM213.8 314.5c-.7 0-1-.3-2.3-1.8a13.2 13.2 0 0 0-5.2-3.8 11.6 11.6 0 0 1 2.4-.3c1.8 0 6.8.6 6.8 4a1.8 1.8 0 0 1-1.7 2zm4.8 10l-6 4.7c-.8 1-1 1-1.4 1-1.4 0-4-3-4-5a4.9 4.9 0 0 1 .3-1.6c1.4 2.2 2.5 2.3 2.6 2.3 1 0 5.4-3 8-5a58 58 0 0 0 10.1-9.6h.2c-.8 3-4 8.5-9.8 13.2zM246.5 319.9c-.5 0-.8-.2-1.8-1a15 15 0 0 0-6-3.5 19 19 0 0 1 3.9-.4c4.1 0 5.4 1.8 5.4 3a1.6 1.6 0 0 1-1.5 1.9zm2.5-7.5a2.1 2.1 0 0 1-1.4-.7c-3.1-2.8-4.2-3.5-6-4a15.3 15.3 0 0 1 2.8-.3c3.4 0 6 1.4 6 3.3 0 .6-.3 1.7-1.4 1.7zm-.3 16.8a9.4 9.4 0 0 0-2.5 2.1 1 1 0 0 1-.7.4 5.6 5.6 0 0 1-3.7-5 3.4 3.4 0 0 1 .1-1 4.7 4.7 0 0 0 2.5 1.8 53 53 0 0 0 17.7-14.6h.2a37 37 0 0 1-13.6 16.3zM293.4 329.5l-2.3-.4a25.3 25.3 0 0 0-4.9-.4c-2.5 0-7.8.4-9.8 1.1a10.3 10.3 0 0 1-1.3.6c-.7 0-2.7-2-2.7-3.4a3.6 3.6 0 0 1 .3-1.5 3.7 3.7 0 0 0 3 2l6.2-.4.1-3.2c0-1.4 0-3.6-.5-4.7l-3.1.5c-1.3 0-2.8-1.8-2.6-3.2a4.6 4.6 0 0 0 3 1 48.2 48.2 0 0 0 7-.5c.4 0 1.8-.6 2-.6.6 0 2.4.5 2.4 1.6 0 .8-1 .8-1.5.8l-4.6.1c1 .6 1 .8 1 1l-.4 1a57.8 57.8 0 0 0-.5 6l5.6-.3 1.4-.3c.2 0 3.1 1.1 3.1 2.3.1.8-.4 1-.9 1zM313.3 314.9l-.9 5.4c-1.4 7-5.8 10-8.4 11l-.2-.2A22 22 0 0 0 310 315c0-2-.6-2.2-2.6-2.8a5.7 5.7 0 0 1 2.5-1c1 0 3.8 1 3.8 2.2l-.4 1.5zm9.2 11.9l-3.8 3c-.5.5-.7.5-.9.5-.8 0-2.4-2.8-2.4-3.6a16.3 16.3 0 0 1 .5-1.9c.2-.9.3-5.1.3-7.5 0-1 0-5.9-.4-6.6s-1.8-1-2.4-1.2a4 4 0 0 1 2.2-1c1.2 0 4.3 1.2 4.3 2.4l-.6 2a145 145 0 0 0-.6 11.8c0 .2 0 .5.2.5 1.3 0 7.7-4.6 11.7-9.6l.2.1a24.8 24.8 0 0 1-8.3 11.1zM347 320c-.7 0-1.1-.3-2.3-1.3a19.2 19.2 0 0 0-5.4-3 18.3 18.3 0 0 1 3.5-.4c3.4 0 5.7 1.2 5.7 3a1.7 1.7 0 0 1-1.4 1.8zm.8 10.5a6 6 0 0 0-.8.7c-.4.5-.6.7-1 .7-1.1 0-3.7-2.5-3.7-5a3.6 3.6 0 0 1 .2-1c.2.3 1.3 1.9 2.4 1.9a2.1 2.1 0 0 0 1.3-.4 58.2 58.2 0 0 0 16.4-14.4l.3.1c-3.6 8.7-8.3 12.3-15 17.3zm1.7-17.8c-.8 0-1.2-.5-2.4-1.6a19.5 19.5 0 0 0-4.7-3.2 8.1 8.1 0 0 1 2.2-.3c3.2 0 6.3 1.2 6.3 3.5a1.5 1.5 0 0 1-1.4 1.6zm11.5-.2c-.5 0-.6-.1-1.8-1.4a14.3 14.3 0 0 0-3.3-2.7c5-.2 6.2 2 6.2 2.8a1.1 1.1 0 0 1-1.1 1.3zm2.6-2.9c-.5 0-.6 0-1.7-1.2a11.9 11.9 0 0 0-3.5-2.5h1.2c.3 0 5.1 0 5.1 2.5a1 1 0 0 1-1.1 1.2zM394.6 328.9a7.6 7.6 0 0 1-1.8-.5 19.7 19.7 0 0 0-5.8-.5 29.5 29.5 0 0 0-9.4 1.5 16.7 16.7 0 0 1-2 .7c-.4 0-2.9-1.6-2.9-3.5a5.2 5.2 0 0 1 .2-1.2 3.7 3.7 0 0 0 3 1.7l5-.5 4-.4c.6-3 1-6.6 1.2-8.3a31.6 31.6 0 0 0-4.9 1.2 12 12 0 0 1-1.5.5c-.6 0-2.2-1.6-2.2-3a4 4 0 0 1 .1-1 2.6 2.6 0 0 0 2.4 1.3 23.8 23.8 0 0 0 6-1 7.9 7.9 0 0 1 1.4-.7c.6 0 2.8 2.2 2.8 2.7 0 .3 0 .3-.9.9-.3.2-.3.4-.6 1.7l-1.4 5.5 3.7-.2 1.6-.3c.8 0 3 1.6 3 2.6a.8.8 0 0 1-1 .8zM418 330.8a5.4 5.4 0 0 1-3.3 2c-1 0-1.3-.7-1.4-1.9s0-1.6-2-4.4l.1-.1c.6.3 3.1 1.8 3.8 1.8 1.9 0 3.5-6 3.5-10.4 0-2.2-.8-2.7-2-2.7a6.8 6.8 0 0 0-1.5.1L412 322c-.5 1-2.7 5.3-3 6.2-1.4 2.6-2 3.7-3 3.7s-1.5-1.2-1.5-2a3.4 3.4 0 0 1 1-2.3 43.2 43.2 0 0 0 6.7-11.5 23.8 23.8 0 0 0-4.1 2 2.5 2.5 0 0 1-1.5.7c-1.3 0-2.7-1.7-2.7-3.3a2.8 2.8 0 0 1 .8-1.9c.5 1.5 1.3 1.8 2 1.8a5.6 5.6 0 0 0 1 0c1.2-.4 4.3-1 5.3-1.3a17.4 17.4 0 0 0 1.3-4.6c0-1-.4-1.5-2.4-2.2a3.8 3.8 0 0 1 2.4-.9 5.3 5.3 0 0 1 3.6 1.9 1.2 1.2 0 0 1 .3.8c0 .6-.2.9-.8 1.8l-1.5 2.8c4.6-.3 5.3 1.8 5.3 5.6 0 3.5-1.4 9.5-3.3 11.6zm12.7-6.8c-.6 0-.8-.2-1.7-1a7.1 7.1 0 0 0-4.5-1.8v-.3c2.7-.2 3.7-.7 3.7-1.3a9.3 9.3 0 0 0-2.2-4 15.5 15.5 0 0 0-3.5-2.6c6.3.5 9.7 5.2 9.7 8.6 0 .5-.2 2.4-1.5 2.4zm-1.5-10.5c-.4 0-.7-.3-1.9-1.4a9.1 9.1 0 0 0-3.4-2.4c3.1-.1 6.4.6 6.4 2.5a1.1 1.1 0 0 1-1.1 1.3zm3-2.5c-.5 0-.8-.3-2-1.5a8.7 8.7 0 0 0-3.8-2 15.8 15.8 0 0 1 2.3-.2c.7 0 4.5 0 4.5 2.5a1.1 1.1 0 0 1-1 1.2zM25.7 385.6a15.7 15.7 0 0 1-5.7-4 15 15 0 0 1-5.6 3.3c-.2 1.2-2 1.3-2.1 1.3-1.2 0-1.2-.7-1.2-1.1l.1-5.6a52.3 52.3 0 0 1-7.8 3.8c-.2.6-.3 1-.6 1s-.4-.3-.5-.5l-2-3.8.9.1 2.7-.2v-11a16.7 16.7 0 0 0-3.4.3L0 368l4.6.2h19.3l1.5-2 .5-.5.7.5 2 2c.2 0 .4.2.4.4 0 .3-.3.3-.5.3H14.4v15.3a16.8 16.8 0 0 0 4.3-4.3 20 20 0 0 1-2.7-7l-1 .2-.4-1.2 4.5.2h3l1.1-1.5c.3-.2.3-.3.5-.3a1.3 1.3 0 0 1 .6.4l2.2 1.8c.2.2.4.3.4.5 0 .5-.8.8-1.6 1a30.3 30.3 0 0 1-3.3 5.5 16.1 16.1 0 0 0 7.4 2.6v.3a5.3 5.3 0 0 0-3.7 3.2zM23.4 360v5.4c0 1.1-1 1.5-2 1.5s-1.1-.5-1.1-1.3h-12c0 1.4-1.8 1.4-2 1.4-1.2 0-1.4-.6-1.4-1.1l.2-4.5a26.7 26.7 0 0 0-.4-4.5l4 1.5H20l1-1.3a.6.6 0 0 1 .5-.3c.2 0 .3 0 .5.3l2.2 1.5a.5.5 0 0 1 .2.4c0 .3 0 .4-1.1 1zM11.3 369H6.8v2.9h4.5zm-4.5 3.7v2.7h4.5v-2.7zm0 3.5v3.5l4.4-.7V376zm13.5-16.9h-12v2.3h12zm0 3h-12v2.7h12zm-1.8 10.6h-1.9a14.4 14.4 0 0 0 3.3 5 25.4 25.4 0 0 0 2.3-5zM62.1 362.1h-24a19.4 19.4 0 0 0-3.4.2l-.5-1.2c2 .2 4.2.2 4.5.2h7.9a12 12 0 0 0-.7-4.7l4.7 1c.2 0 .5.1.5.5s-.5.6-1.3.9v2.3H57l1.6-2.1c.2-.3.2-.5.4-.5s.3.1.6.4l2.7 2.1a.6.6 0 0 1 .3.5c0 .3-.3.4-.5.4zm-1.7 12.1l.2 8c0 1 0 3.6-4.8 4a5.5 5.5 0 0 0-2.8-4 3 3 0 0 1-1 .2c-1.2 0-1.2-.5-1.1-1.5h-5.6c0 1 .1 2.2-1.7 2.2-1.3 0-1.4-.7-1.4-1.1l.2-4a24.8 24.8 0 0 0-.3-3.7l3.3 1.4h5.2l1-1.1.3-.3a1 1 0 0 1 .6.2l1.9 1.4a.7.7 0 0 1 .2.6c0 .2 0 .3-.8.8l.1 3.6a1.4 1.4 0 0 1-.4 1.1l2.7.1c.5 0 .8-.1.9-.6a18.8 18.8 0 0 0 .1-2.8v-5.6H39.3v11c0 .6-.2 2-2.1 2-.8 0-1.5-.3-1.5-1.3l.3-6.1-.1-6.8-.2-1.1 4 1.6h17L58 371a.7.7 0 0 1 .5-.3l.6.3 2.3 1.5a.6.6 0 0 1 .3.5c0 .3-.1.4-1.1 1.1zm-4.1-8v3.4c0 1-1.3 1.4-2.2 1.4-1.2 0-1-1-1-1.5H43a1.9 1.9 0 0 1-.2 1 2.6 2.6 0 0 1-2 .9c-.4 0-1.1-.1-1.1-.9v-3.8a35.3 35.3 0 0 0-.1-3.7l3.5 1.4H53l1-1.2c0-.2.3-.4.4-.4a1.3 1.3 0 0 1 .6.4l2.2 1.6a.5.5 0 0 1 .2.4c0 .4 0 .4-1 1zm-3.2-1h-10v3.5h10zM51 376.4h-5.6v3.7h5.6zM81 383.3v-.2c4.6-1.8 10-5.6 10-12.5 0-4.7-2.9-8.6-9.1-8.6a4 4 0 0 0-1.5.2c2.8 1.5 2.8 2.9 2.8 3.3 0 1.1-2.8 7-4.9 10.5-2.4 4-3.6 5-4.8 5s-1.3-.4-2.3-2a4.2 4.2 0 0 0-1.2-1.3 5 5 0 0 1-1.4-3.9c0-7 6-12.9 14-12.9 6.2 0 12.2 3.6 12.2 10.5 0 10-11.2 11.6-13.8 12zm-1.7-21a12.3 12.3 0 0 0-8 11c0 1.4.6 4.5 2 4.5s2.8-3.2 4.2-6c.7-1.5 2.6-5.4 2.6-7.3a3 3 0 0 0-.8-2.1zM127 385.9c-5.4-1-9.3-4.3-11-9.4-2.2 6.2-7.8 9-14.4 9.3v-.3c4.6-.9 9.4-4.6 10.8-9h-7.1a15.3 15.3 0 0 0-3.5.2l-.5-1.1 4.6.2h6.7a12.8 12.8 0 0 0 .4-4.4h-8a16 16 0 0 0-3.4.3l-.5-1.2 4.5.2h7.7v-3.8h-5.1a15.1 15.1 0 0 0-3.5.2l-.5-1.2c1.5.2 3 .2 4.5.2h4.6v-3.3h-7a20.1 20.1 0 0 0-3.4.2l-.5-1.1 4.5.2h3.2c-.3-.3-.4-.5-.8-1.6a7 7 0 0 0-2.5-3.4v-.3c1.5.2 6.3.8 6.3 3.7a2 2 0 0 1-.8 1.6h4.3a17.5 17.5 0 0 0 1.7-5.9l4 2a.7.7 0 0 1 .4.5c0 .6-.4.6-1.3.7a35.8 35.8 0 0 1-3.8 2.7h5.9l1.4-2.2.4-.3a1 1 0 0 1 .7.3l2.2 2 .3.6c0 .2-.3.3-.5.3h-11.4v3.3h4.5l1.2-1.7c.2-.3.3-.5.5-.5a1 1 0 0 1 .6.4l2 1.8c0 .1.3.2.3.5s-.3.3-.5.3h-8.6v3.8h8l1.5-2.1c.1-.2.3-.4.5-.4s.4.2.6.3l2.4 2.1a.7.7 0 0 1 .3.5c0 .3-.3.4-.5.4h-14.3l1.9.4c.5.1.6.3.6.5 0 .4-.3.6-1.1 1a12.1 12.1 0 0 1-.4 2.4h8.1l1.4-2c.2-.3.3-.5.5-.5a1.3 1.3 0 0 1 .6.4l2.3 2c.2.1.4.3.4.5s-.4.4-.5.4h-12.2c1.7 2.3 5.6 5.3 13.4 5.5v.3a6.4 6.4 0 0 0-3 3.5zM159.9 370.9a33.6 33.6 0 0 0-9 2.4 15.5 15.5 0 0 1 .3 3c0 .8 0 3.4-1.8 3.4-.9 0-1.6-1-1.6-2.3V374.7c-1.7 1-4.4 2.9-4.4 4.7 0 2.1 3 2.2 4.7 2.2a28 28 0 0 0 5-.5l1.5-.2a2.5 2.5 0 0 1 2.3 2 1.4 1.4 0 0 1-1 1.3 27.2 27.2 0 0 1-5.7.7c-2 0-8.7-.2-8.7-4.3 0-3.2 3.8-6 6.2-7.6-.2-1.4-.5-3-2.3-3s-3.4 1.6-4.3 3.1a18.2 18.2 0 0 1-1.8 2.7 1.1 1.1 0 0 1-.7.3c-1 0-1.2-1.2-1.2-2.1 0-1.2.2-1.5 1.8-3.1a31 31 0 0 0 4-5.5 12.6 12.6 0 0 1-1.4.1c-3.4 0-4.3-2.1-4.2-3.5a5.8 5.8 0 0 0 4.2 1.4 21.3 21.3 0 0 0 2.8-.2 13.1 13.1 0 0 0 1.6-3.6c0-.5-.9-1-2.4-1.1a3.6 3.6 0 0 1 3-1.3c1.7 0 3.3 1 3.3 1.9 0 .5-.1.7-1 1.5a11.1 11.1 0 0 0-1.3 1.8l3.6-1.4a2.3 2.3 0 0 1 .7-.1c.9 0 2.1.9 2.1 1.5s-.5 1-1 1.1a32.5 32.5 0 0 1-7.2 1.6c-.5.7-2.7 3.8-3 4.5a7.9 7.9 0 0 1 3.4-.8c2.8 0 3.6 1.5 4 2.7l5.6-2.9c.8-.4.8-.7.8-.9 0-.4-.1-.5-1.3-1a2.4 2.4 0 0 1 1.4-.4c2 0 4.2 1.7 4.2 3.4 0 1-.5 1.1-1.2 1.2zM192.3 382c-1.9.8-6.7 1-8.8 1-8.2 0-11.7-3.1-11.7-6.4a5.8 5.8 0 0 1 2.5-4.8 8.9 8.9 0 0 0-.6 3 4.4 4.4 0 0 0 1.6 3.2c1.7 1.5 5.3 1.6 6 1.6a37.5 37.5 0 0 0 7.6-.9 6.8 6.8 0 0 1 1.2-.1c1.3 0 3.1.8 3.1 2a1.5 1.5 0 0 1-1 1.4zm-4.4-16.8a15.1 15.1 0 0 0-6.4 1 24.7 24.7 0 0 0-3.2 1.3l-.1-.2c.4-.4.8-.8 2.4-2a7.6 7.6 0 0 0 1.3-1c0-.3-.5-.3-.6-.3-1.4-.1-6.6-1.3-6.6-4.9 2.5 2.1 5.2 2.2 7.4 2.2l3.6-.1c3.1 0 4.5 1.6 4.5 2.6s-1.1 1.3-2.3 1.3zm5.7-1.4c-.6 0-.7-.1-1.7-1.5a7.8 7.8 0 0 0-3-2.8c3.8.1 5.8 1.5 5.8 3a1.2 1.2 0 0 1-1.1 1.3zm3.4-1.6c-.5 0-.6-.1-1.7-1.5a7 7 0 0 0-3-2.4 8 8 0 0 1 1 0c1.7 0 4.8.7 4.8 2.8a1.1 1.1 0 0 1-1.1 1zM213.4 364.3H209v5.2a45.6 45.6 0 0 0 4.7-1.6v.3l-4.7 3.2v9.7c0 3.4-1 4.3-3.8 5a6 6 0 0 0-3-4v-.3a16.7 16.7 0 0 0 2.7.3c.4 0 .7 0 .9-.4a32.4 32.4 0 0 0 .2-4.2v-4.1c-.7.4-2 1.3-2.2 1.3-.2.7-.2 1-.6 1a.6.6 0 0 1-.4-.4l-2-3.7c1.5 0 1.6 0 5.2-1v-6.3a20.3 20.3 0 0 0-4 .3l-.5-1.2 4.4.2a25.4 25.4 0 0 0-.6-7l4.2 1c.2 0 .6.2.6.6s-.6.8-1.1 1.1v4.3h.6l1-1.7a.7.7 0 0 1 .5-.5 1.2 1.2 0 0 1 .6.4l1.8 1.7a.7.7 0 0 1 .3.5c0 .3-.2.3-.4.3zm15.3 21.5c-3.4 0-6.6-.3-8.9-1.3a9 9 0 0 1-4.6-5.8 15.8 15.8 0 0 1-6 7.3l-.2-.2c2.7-3 4.1-9.9 4.1-12a4 4 0 0 0 0-.9l3.8 1.6c.3.1.6.2.6.6s-.8.7-1.3 1l-.6 1.7a6.2 6.2 0 0 0 3.3 3.5v-9.6h-3.6a19.6 19.6 0 0 0-3.5.2l-.5-1.1 4.6.2h10.3l1.3-1.8c.1-.2.3-.4.5-.4a1 1 0 0 1 .5.3l2 1.8c.2.2.4.3.4.5s-.3.3-.5.3H222v4.5h1.9l1.3-1.9c.1-.1.3-.4.5-.4a1 1 0 0 1 .6.4l2.1 1.8c.3.3.3.4.3.5 0 .3-.3.4-.5.4h-6.2v5.1a26.2 26.2 0 0 0 3.5.2 21 21 0 0 0 5.3-.6v.3a6 6 0 0 0-2.2 3.8zm-2-25.2l.2 7.4c0 1.3-1.9 1.5-2 1.5-1.3 0-1.3-1-1.3-1.5h-5.9c.2 1.2-1 1.8-2 1.8s-1-.6-1-1v-8.6l-.2-3 3.5 1.3h5.6l.8-1 .5-.4.6.3 2 1.5c.4.3.4.4.4.5s0 .4-1.2 1.2zm-3-1.3h-6v3.5h6zm0 4.2h-6v3.8h6zM261.7 385.5a18.8 18.8 0 0 1-10.2-8.3v7.4c0 1.8-1.9 1.8-2 1.8-1.3 0-1.3-.7-1.3-1.2v-6.3a20.6 20.6 0 0 1-5 3.8 31.9 31.9 0 0 1-7.8 3v-.3a28.4 28.4 0 0 0 10.1-8.6h-6.1a16.1 16.1 0 0 0-3.5.2l-.5-1.1 4.5.2h8.4v-3.2a27 27 0 0 1-10.2 1.5v-.2a26 26 0 0 0 10.9-4 34.8 34.8 0 0 0-4-1.1c-1 1.6-1.2 1.7-2 1.7s-2-.3-2-1a1.8 1.8 0 0 1 .4-1l2.1-2.9h-4.2a18.6 18.6 0 0 0-3.5.3l-.5-1.2c2 .2 4.2.2 4.5.2h4.2a17.4 17.4 0 0 0 2-4h-5.3c0 2.8-1.4 3.8-2.6 3.8a1.7 1.7 0 0 1-1.9-1.6c0-.9.5-1.2 1.1-1.6a6.4 6.4 0 0 0 2.6-3.2h.3a8.2 8.2 0 0 1 .4 1.8h7.4a9.4 9.4 0 0 0-.5-3.6l4.5.9c.4 0 .5.2.5.3 0 .3-.7.7-1.1 1l-.1 1.4h5.8l1.4-1.4c.1-.2.3-.2.4-.2l.4.2 2.8 2.4a.6.6 0 0 1 .3.5c0 .5-.3.5-1 .5a4 4 0 0 0-1.6.4l-3.4 1.7-.2-.2a11.8 11.8 0 0 0 1-3.1H247l2.5 1.4a.6.6 0 0 1 .3.4c0 .3-.2.5-1.2.7-.3.3-.4.4-1 1.5H259l1.4-2c.2-.1.3-.3.5-.3s.3.1.6.3l2.3 2a.7.7 0 0 1 .3.4c0 .3-.3.3-.5.3H256l1.7 1a.4.4 0 0 1 .3.4c0 .3 0 .5-1.5.7a18.4 18.4 0 0 1-2.1 1.7c3.9 1 5 2 5 3.3a1.6 1.6 0 0 1-1.6 1.5 2.6 2.6 0 0 1-1.6-.6 23.4 23.4 0 0 0-4.2-2.6 21.3 21.3 0 0 1-2.7 1.3l3 .7c.2 0 .4.1.4.3s0 .4-1.1 1.2v1.3h7.4l1.6-2c.3-.4.4-.4.5-.4l.6.3 2.6 2a.7.7 0 0 1 .4.5c0 .3-.3.3-.5.3h-12.2c3.2 2.6 8.8 5 13 5v.4a4.5 4.5 0 0 0-3.2 3.3zM247 366l-1.7 2.6a30.8 30.8 0 0 1 5.2.4 12.6 12.6 0 0 0 2.9-3zM279.5 377.6a3.5 3.5 0 0 0-.2 1l.5 2a1.4 1.4 0 0 1-1.6 1.5c-1.5 0-6-2.2-6.4-11.1 0-.8 0-4-.2-4.7a9.6 9.6 0 0 0-1.4-4.5c2.3.2 5.2 1.6 5.2 4.2a5.7 5.7 0 0 1-.2 1 24 24 0 0 0-.8 5.3c0 3 1.5 5 2 5s1.3-1 1.7-1.6l4.1-5.8h.3l-3 7.7zm14.9-.7c-.6 0-.7-.1-2-1.6-.8-.9-3.4-1.3-4.1-1.5v-.2c.2 0 3.2-.3 3.6-.5a.8.8 0 0 0 .5-.8 11.3 11.3 0 0 0-1.6-4.4 15 15 0 0 0-3.5-3.8c4.2 0 9 5 9 9.5 0 1.9-1 3.3-1.9 3.3zM318.8 365.3a36.6 36.6 0 0 1-5.2 1.8c-2.2 6.7-4.9 13.5-5.6 15-1 2.2-1.5 2.2-2 2.2a2 2 0 0 1-1.8-2c0-.8.1-1 1.2-2.7a56.6 56.6 0 0 0 5.6-12 20 20 0 0 1-3.1.4 3.8 3.8 0 0 1-4.2-3.2 7.5 7.5 0 0 0 3.7.9 16.9 16.9 0 0 0 4.4-.7 17.5 17.5 0 0 0 .8-4c0-1.4-1.4-2-2.5-2.3a2.7 2.7 0 0 1 2-.8c1.5 0 4.2 1.2 4.2 2.7 0 .4 0 .6-.6 1.4a13.3 13.3 0 0 0-1 2 9.1 9.1 0 0 0 1.8-.8c1.3-.9 1.5-1 2-1a1.8 1.8 0 0 1 1.8 1.6c0 .8-1 1.2-1.5 1.5zm10.2 18.4a11.3 11.3 0 0 1-4.5.7c-7.8 0-9.1-3.5-9.1-4.9a4.4 4.4 0 0 1 1.5-3.3 6 6 0 0 0-.2 1.4c0 3.4 4.1 3.4 5.7 3.4a16.1 16.1 0 0 0 3.6-.3 5 5 0 0 1 1.2-.2 2.8 2.8 0 0 1 2.4 2.2 1 1 0 0 1-.6 1zm-.3-13l-2.3-.2c-1.6 0-4.6 1.3-5.1 1.5l-.1-.1c.9-.7 3-2.2 3-2.7 0-.9-3-.9-3.2-.9a9.5 9.5 0 0 0-2.2.2c1.7-1.8 4.6-2 6-2 4 0 5.3 2 5.3 3s-.6 1.1-1.4 1.1zM350.5 384.9c-6.4 0-6.9-3.8-6.9-9l.4-13.4c0-1.4-.2-1.9-.5-2.2a4.3 4.3 0 0 0-2.6-1 5.1 5.1 0 0 1 3.2-1.2c1.8 0 4.2 1.5 4.2 2.9a25.2 25.2 0 0 1-.6 2.5 85.5 85.5 0 0 0-1.4 13.7c0 2.7 0 4.6 3.7 4.6a24 24 0 0 0 14.3-6.4l.2.2a15 15 0 0 1-14 9.3zM393.5 363.8a46.2 46.2 0 0 1-7.4 1.8v3.9l4-1.3c1 0 2.3.4 2.3 1.5a1 1 0 0 1-.7 1 42.7 42.7 0 0 1-5.6 1.3 26 26 0 0 0 .7 6c5 .8 7.2 3 7.2 4.5a1.5 1.5 0 0 1-1.5 1.7 3.5 3.5 0 0 1-1.8-.9 25.5 25.5 0 0 0-3.6-2.3c-.2 1.4-.6 4.2-6 4.2-3.2 0-5.7-1.6-5.7-3.8 0-3 3.8-4 8.6-3.8-.3-2.1-.4-4.2-.4-5.2a36.4 36.4 0 0 1-4.1.2c-.8 0-3.8 0-3.8-1.6a3.2 3.2 0 0 1 2.6-2.4 2.1 2.1 0 0 0-.5 1c0 .8.9.8 1.9.8a23.9 23.9 0 0 0 3.9-.3v-4a32.7 32.7 0 0 1-4.5.4c-1.5 0-4.6 0-5.9-3.5a10.7 10.7 0 0 0 5 1.2 30.4 30.4 0 0 0 5.4-.5c0-3 0-3.4-.5-4a4.3 4.3 0 0 0-2.5-1 2.9 2.9 0 0 1 2.6-1.2c.7 0 4.2.4 4.2 2.3l-.5 1.6a7.7 7.7 0 0 0-.5 1.6 29.5 29.5 0 0 0 4.2-1.4 2.1 2.1 0 0 1 1-.3c1 0 2.5.7 2.5 1.7a.9.9 0 0 1-.6.8zm-13 15.7c-.8 0-3.8.1-3.8 1.8 0 .8 1 1.5 3.2 1.5 3.9 0 4-1.8 4-2.9a10.4 10.4 0 0 0-3.4-.4zM430.8 366l-3.4-.5a36 36 0 0 0-4-.3l-3.3.2a34.2 34.2 0 0 0 0 4.6 12 12 0 0 1 1.5 5.5c0 5.1-4 9.7-10.2 11.4l-.1-.3a15 15 0 0 0 6.9-9.9c-.6.8-1.5 2-3 2-2 0-3.6-2.3-3.6-5s1.6-5.5 4.2-5.5a7.5 7.5 0 0 1 2.2.4v-3a29.7 29.7 0 0 0-10.2 3 2.4 2.4 0 0 1-1.1.4c-1.2 0-3.2-1.7-3.2-4a1.9 1.9 0 0 1 .4-1.4c.8 1.2 1.4 1.9 2.8 1.9.7 0 .8 0 6.4-1l4.8-.6c-.2-4.7-.5-5.4-3.4-5.8a3 3 0 0 1 2.6-1.2c1.6 0 4 1.2 4 2.2l-.3 1.3a24 24 0 0 0-.5 3.2c2-.2 5.7-.6 7.3-1a4.7 4.7 0 0 1 1-.1c.7 0 3.4.8 3.4 2.2a1.3 1.3 0 0 1-1.2 1.3zm-15.1 4c-1.4 0-2.3 1.5-2.3 3.2s1 3 2 3 2.4-1.6 2.4-3.4c0-1.7-.8-2.9-2.1-2.9zM442.2 385.1a4.7 4.7 0 1 1 4.7-4.7 4.7 4.7 0 0 1-4.7 4.7zm0-8a3.3 3.3 0 0 0-3.2 3.3 3.3 3.3 0 1 0 3.2-3.4z"/></svg>