<svg width="27" height="21" viewBox="0 0 27 21" fill="none" xmlns="http://www.w3.org/2000/svg">
<g clip-path="url(#clip0_4049_468)">
<path d="M-20 1H0C2.20914 1 4 2.79086 4 5V19.0858C4 19.9767 5.07714 20.4229 5.70711 19.7929L23.3284 2.17157C24.0786 1.42143 25.096 1 26.1569 1H330C332.209 1 334 -0.790861 334 -3C334 -5.20914 332.209 -7 330 -7H-20C-22.2091 -7 -24 -5.20914 -24 -3C-24 -0.790861 -22.2091 1 -20 1Z" fill="#FF4469"/>
</g>
<defs>
<clipPath id="clip0_4049_468">
<rect width="27" height="21" fill="white" transform="matrix(-1 0 0 1 27 0)"/>
</clipPath>
</defs>
</svg>
