<svg width="38" height="38" viewBox="0 0 38 38" fill="none" xmlns="http://www.w3.org/2000/svg">
<path fill-rule="evenodd" clip-rule="evenodd" d="M7.62663 0.00977645C6.59648 0.0895732 5.60441 0.355702 4.66753 0.803599C2.98629 1.60739 1.62769 2.96165 0.815764 4.64316C0.428384 5.44543 0.210655 6.14907 0.0684304 7.05837C0.00365165 7.4723 0 8.11261 0 19.0013C0 29.8899 0.00365165 30.5302 0.0684304 30.9441C0.211225 31.8572 0.430438 32.5649 0.816524 33.3594C1.63754 35.0488 2.95103 36.3622 4.64064 37.1831C5.43518 37.5692 6.14288 37.7884 7.05606 37.9312C7.47002 37.9959 8.11039 37.9996 19 37.9996C31.8637 37.9996 30.7714 38.0223 31.8858 37.7317C34.1935 37.1298 36.1264 35.5345 37.1835 33.3594C37.5696 32.5649 37.7888 31.8572 37.9316 30.9441C37.9963 30.5302 38 29.8899 38 19.0013C38 8.11261 37.9963 7.4723 37.9316 7.05837C37.7893 6.14907 37.5716 5.44543 37.1842 4.64316C36.1219 2.44316 34.1331 0.826305 31.7618 0.234942C30.7649 -0.0136529 31.7723 0.00513622 19.1902 0.00061009C12.9244 -0.00163396 7.72077 0.00251182 7.62663 0.00977645ZM20.143 6.10898C21.1189 6.1844 22.0054 6.32011 22.8609 6.52512C27.7811 7.70419 31.5877 11.1025 32.5543 15.1788C32.7088 15.8304 32.7704 16.302 32.7951 17.0235C32.9369 21.1647 30.532 24.5418 24.2492 29.0235C22.5641 30.2257 20.2762 31.6603 19.2472 32.1602C18.7236 32.4146 18.4952 32.4846 18.1886 32.4846C17.9444 32.4846 17.9221 32.4772 17.8204 32.3633C17.6441 32.1661 17.6424 32.0105 17.8059 31.0519C17.9921 29.9605 18.0074 29.3965 17.8589 29.0995C17.7018 28.7854 17.3035 28.5691 16.6701 28.4539C16.4976 28.4225 16.1167 28.3527 15.8238 28.2988C11.7464 27.5483 8.33547 25.352 6.46441 22.2722C5.98449 21.4823 5.54868 20.4273 5.33069 19.5277C5.13293 18.7116 5.09702 18.3691 5.09809 17.3087C5.09892 16.4476 5.11033 16.2568 5.1863 15.8317C5.48334 14.1701 6.15296 12.6919 7.24807 11.2802C7.60331 10.8223 8.52143 9.88324 9.00878 9.47935C10.3955 8.33009 11.9384 7.48979 13.7698 6.88626C15.0992 6.44817 16.2761 6.22335 17.9159 6.09422C18.2981 6.06414 19.6811 6.0733 20.143 6.10898ZM9.73549 14.415C9.6636 14.4676 9.66139 14.5506 9.65151 17.592L9.64135 20.715L9.73534 20.809L9.82937 20.903H11.8387C13.5956 20.903 13.8585 20.8956 13.9325 20.8438C14.0139 20.7867 14.017 20.7622 14.017 20.165C14.017 19.6132 14.0094 19.5387 13.9474 19.4826C13.8854 19.4264 13.7289 19.4196 12.502 19.4196H11.1261V16.9664C11.1261 14.5639 11.1246 14.5116 11.05 14.4371C10.9806 14.3676 10.9233 14.361 10.3916 14.361C9.94881 14.361 9.79164 14.374 9.73549 14.415ZM15.0212 14.3901C14.8958 14.4739 14.8919 14.5713 14.8919 17.6503V20.7163L14.9853 20.8096C15.0758 20.9001 15.0955 20.903 15.6268 20.903C16.1237 20.903 16.1843 20.8956 16.2751 20.8241L16.3754 20.7453V17.6292C16.3754 14.5639 16.3741 14.5119 16.2993 14.4371C16.2298 14.3676 16.1729 14.3611 15.6431 14.3616C15.3241 14.3619 15.0442 14.3748 15.0212 14.3901ZM17.4489 14.4202L17.3644 14.4794L17.3649 17.6057C17.3653 19.325 17.3781 20.7507 17.3935 20.7737C17.4626 20.8772 17.6071 20.903 18.1184 20.903C18.5843 20.903 18.6602 20.8941 18.739 20.8303L18.8288 20.7576L18.8478 18.9077L18.8669 17.0579L20.2482 18.9229C21.008 19.9487 21.6665 20.8139 21.7116 20.8455C21.7756 20.8903 21.914 20.903 22.3385 20.903C22.8663 20.903 22.8863 20.9001 22.9767 20.8096L23.0701 20.7163V17.6503C23.0701 14.5713 23.0662 14.4739 22.9407 14.3901C22.9177 14.3748 22.6379 14.3619 22.3188 14.3616C21.789 14.3611 21.7322 14.3676 21.6627 14.4371C21.5887 14.511 21.5866 14.5639 21.5866 16.3388C21.5866 17.3429 21.5738 18.164 21.5581 18.1635C21.5423 18.1629 20.939 17.3631 20.2172 16.3862C19.4954 15.4093 18.8561 14.554 18.7963 14.4855L18.6878 14.361H18.1106C17.6498 14.361 17.5164 14.373 17.4489 14.4202ZM24.122 14.4306C24.0645 14.4941 24.0591 14.7719 24.0591 17.6424V20.7846L24.1436 20.8438C24.2175 20.8956 24.4804 20.903 26.2374 20.903H28.2467L28.34 20.8096C28.4304 20.7193 28.4334 20.6987 28.4334 20.1796C28.4334 19.702 28.4115 19.5488 28.33 19.4577C28.3207 19.4472 27.6854 19.4301 26.9183 19.4196L25.5235 19.4006V18.8872V18.3737L26.9183 18.3547C27.6854 18.3442 28.3207 18.3271 28.33 18.3166C28.4115 18.2255 28.4334 18.0723 28.4334 17.5947C28.4334 17.0756 28.4304 17.055 28.34 16.9647L28.2467 16.8713H26.8756H25.5045V16.3592V15.8471L26.8963 15.8362L28.288 15.8254L28.3633 15.7324C28.4323 15.6471 28.4376 15.5909 28.4265 15.0541C28.4156 14.5266 28.4071 14.4635 28.3406 14.4149C28.279 14.37 27.927 14.361 26.2259 14.361C24.297 14.361 24.1815 14.3648 24.122 14.4306Z" fill="white"/>
</svg>
