<svg width="74" height="20" viewBox="0 0 74 20" fill="none" xmlns="http://www.w3.org/2000/svg">
<path fill-rule="evenodd" clip-rule="evenodd" d="M74 11.0824V11.7684H67.9567C68.0086 10.3344 68.0497 8.90007 68.08 7.46548V4.59688C68.0943 3.14073 68.0531 1.68457 67.9567 0.231625C69.9503 0.274353 71.9447 0.274353 73.9383 0.231625C73.8632 0.580921 73.8632 0.942463 73.9383 1.29176C72.9298 1.25252 71.9224 1.19014 70.9167 1.10468H69.4983C69.5123 1.79057 69.5123 2.47669 69.4983 3.16258C69.4895 3.91089 69.4895 4.65927 69.4983 5.40757V6.09354C69.5118 6.3428 69.5118 6.59261 69.4983 6.84187V8.52561C69.4898 9.35707 69.4898 10.1886 69.4983 11.02H70.67C71.7825 11.0191 72.8942 10.9566 74 10.833V11.0824ZM72.52 6.1559C71.7803 6.12485 71.0397 6.12485 70.3 6.1559V5.34521C71.371 5.32801 72.4408 5.2656 73.5067 5.15813C73.4434 5.48765 73.4434 5.82638 73.5067 6.1559H72.52ZM67.34 11.7684H66.97C67.022 10.3136 67.0631 8.8585 67.0933 7.40312V4.65924V2.41425L66.97 0.293986H67.34L67.4633 2.41425V7.46548C67.4786 8.92163 67.4375 10.3778 67.34 11.8307V11.7684ZM63.1467 11.7684H62.4067C62.1338 8.89827 61.846 6.02963 61.5433 3.16258L59.2 7.40312C58.46 8.77506 57.7817 10.2094 57.1033 11.7684H56.9183C55.5759 8.85132 54.1362 5.98107 52.6017 3.16258C52.3694 5.45071 52.1227 7.73732 51.8617 10.0223L51.8 11.7684C51.4109 11.7195 51.0174 11.7195 50.6283 11.7684C51.2178 7.86552 51.7729 3.95742 52.2933 0.0445428H52.6017C54.0861 3.17174 55.6697 6.2498 57.35 9.27394C58.3401 7.34106 59.368 5.42828 60.4333 3.53675C61.0411 2.36785 61.6577 1.20375 62.2833 0.0445428H62.53C62.8942 3.01298 63.2231 5.98572 63.5167 8.96214L63.8867 11.7684H63.1467ZM61.05 1.47884L60.8033 1.85301L60.1867 2.9755C59.2561 4.69775 58.3311 6.42307 57.4117 8.15145L57.165 7.71492C58.2334 5.68704 59.3229 3.67059 60.4333 1.66592L60.68 1.29176L61.05 0.60579L61.3583 0.0445428H61.8517C61.5966 0.529496 61.3293 1.00775 61.05 1.47884ZM50.9983 5.96882C50.7327 7.90531 50.4449 9.83863 50.135 11.7684H49.7033C50.2927 7.8655 50.8477 3.9574 51.3683 0.0445428H51.7383C51.5368 2.0248 51.2901 4.00009 50.9983 5.96882ZM51.06 16.4454L51.1217 16.5702L51.245 17.3808H51.1217C50.875 16.7572 50.3817 16.4454 49.8267 16.4454C49.025 16.4454 48.5933 17.069 48.5933 17.9421C48.5933 19.0646 49.21 19.8129 50.135 19.8129C50.5667 19.8129 50.7517 19.8129 50.7517 19.1893C50.7517 18.6281 50.69 18.5657 50.135 18.5657V18.5033H51.5533V18.5657C51.3067 18.5657 51.3067 18.6281 51.3067 19.1893V19.7506C50.875 19.8753 50.3817 19.9376 49.95 19.9376C48.7167 19.9376 47.915 19.1893 47.915 18.1292C47.915 17.069 48.84 16.2584 50.0733 16.2584C50.4433 16.2584 50.8133 16.3207 51.06 16.4454ZM47.2983 11.706H46.805L46.3117 11.7684C44.9698 9.97358 43.5923 8.20633 42.18 6.46771V5.65702H42.4267C42.7967 5.65702 43.1667 5.65702 43.5367 5.53229C43.9067 5.46993 44.2767 5.28285 44.585 5.09577C44.9235 4.87654 45.1988 4.57076 45.3828 4.20938C45.5669 3.84801 45.6533 3.44387 45.6333 3.03786C45.6333 2.6637 45.51 2.28953 45.325 1.97773C45.2017 1.72828 44.955 1.47884 44.7083 1.35412C44.4617 1.16704 44.215 1.04232 43.9067 0.979955L42.9817 0.855233C42.4454 0.868685 41.9103 0.910315 41.3783 0.979955L41.3167 2.85078V7.52784C41.2837 8.94163 41.3043 10.3562 41.3783 11.7684C40.8448 11.7227 40.3085 11.7227 39.775 11.7684C39.8298 10.3345 39.8709 8.90014 39.8983 7.46548V4.59688C39.9145 3.14072 39.8734 1.68448 39.775 0.231625C41.4778 0.365139 43.1854 0.427553 44.8933 0.418708C45.325 0.481068 45.695 0.60579 46.0033 0.855233C46.3464 1.0696 46.6253 1.37444 46.81 1.73701C46.9947 2.09958 47.0783 2.50618 47.0517 2.91314C47.0626 3.39707 46.934 3.87376 46.6817 4.28508C46.435 4.65924 46.1883 4.97105 45.8183 5.22049C45.1495 5.67055 44.3921 5.96843 43.5983 6.09354C44.7096 7.38854 45.779 8.7196 46.805 10.0846C47.2628 10.6586 47.7358 11.22 48.2233 11.7684H47.2367L47.2983 11.706ZM39.2817 11.7684H38.85C38.9059 10.3553 38.947 8.94175 38.9733 7.52784V4.65924C38.9894 3.20308 38.9483 1.74684 38.85 0.293986H39.22C39.2904 1.74868 39.3521 3.20379 39.405 4.65924V7.52784C39.396 8.9432 39.3343 10.3577 39.22 11.7684H39.2817ZM38.5417 19.8753H37C37.37 19.8753 37.4317 19.7506 37.4317 19.4388V16.8196C37.4317 16.5078 37.37 16.3831 37 16.3831H38.48C38.11 16.3831 38.0483 16.5078 38.0483 16.8196V19.3764C38.0483 19.6882 38.11 19.7506 38.48 19.7506L38.5417 19.8753ZM36.1367 11.7684H35.2733C35.0489 11.0661 34.7812 10.3788 34.4717 9.71047C34.1659 8.91954 33.8576 8.12963 33.5467 7.34076C32.1287 7.29596 30.7097 7.29596 29.2917 7.34076C28.7103 8.79882 28.1756 10.2755 27.6883 11.7684C27.2786 11.7204 26.8647 11.7204 26.455 11.7684C28.2607 7.88742 30.0081 3.97903 31.6967 0.0445428H32.005C33.655 3.95899 35.32 7.86696 37 11.7684H36.075H36.1367ZM31.45 2.28953L29.6 6.59243C30.5244 6.54445 31.4506 6.54445 32.375 6.59243H33.3L31.45 2.28953ZM25.9 11.7684H25.4067C27.2097 7.88617 28.9571 3.97782 30.6483 0.0445428H31.08C29.3815 3.96513 27.6547 7.87318 25.9 11.7684ZM26.7633 18.1292C26.7633 19.1893 25.9 20 24.79 20C23.7417 20 23.0017 19.1893 23.0017 18.1292C23.0017 16.9443 24.1117 16.3207 24.975 16.3207C26.1467 16.3207 26.825 17.2561 26.825 18.1915L26.7633 18.1292ZM24.79 16.5078C24.1117 16.5078 23.68 17.069 23.68 18.0045C23.68 19.0646 24.2967 19.8753 24.975 19.8753C25.5917 19.8753 26.085 19.314 26.085 18.3163C26.085 17.2561 25.5917 16.4454 24.79 16.4454V16.5078ZM23.1867 9.71047L23.2483 11.8307C22.6944 11.7818 22.1373 11.7818 21.5833 11.8307C21.6599 10.3971 21.7216 8.96275 21.7683 7.52784V5.96882C19.7129 5.94123 17.6571 5.94123 15.6017 5.96882V5.22049H16.5267C18.2735 5.27265 20.0215 5.27265 21.7683 5.22049V4.59688C21.7653 3.13986 21.7036 1.68357 21.5833 0.231625C21.8699 0.28166 22.1578 0.323252 22.4467 0.356347H22.8167L23.2483 0.293986C23.1984 1.7488 23.1573 3.20392 23.125 4.65924V9.64811L23.1867 9.71047ZM14.8 6.03118V7.46548C14.7848 8.90086 14.8259 10.3363 14.9233 11.7684C14.3898 11.723 13.8535 11.723 13.32 11.7684C13.3748 10.3345 13.4159 8.90014 13.4433 7.46548V4.59688C13.4595 3.14072 13.4184 1.68448 13.32 0.231625C13.5861 0.280506 13.8534 0.322095 14.1217 0.356347H14.5533L14.9233 0.293986C14.8734 1.7488 14.8323 3.20392 14.8 4.65924V6.03118ZM12.765 11.7684H12.3333C12.388 10.3553 12.4291 8.94172 12.4567 7.52784V4.65924V2.47661L12.3333 0.293986H12.765L12.8267 2.47661V7.52784C12.8587 8.94163 12.8381 10.3561 12.765 11.7684ZM4.31667 6.09354C5.365 6.09354 6.16667 5.09577 6.16667 3.72383C6.16667 5.09577 6.90667 6.09354 8.01667 6.09354C6.90667 6.09354 6.16667 7.09131 6.16667 8.46325C6.16667 7.09131 5.365 6.09354 4.31667 6.09354ZM9.49667 2.10245H9.37333C8.81898 1.53901 8.14375 1.11224 7.4 0.855233C7.05825 0.763207 6.70521 0.721206 6.35167 0.730512C5.735 0.730512 5.11833 0.855233 4.50167 1.04232C3.885 1.29176 3.45333 1.60356 3.02167 2.04009C2.59 2.47661 2.28167 3.03786 2.035 3.72383C1.78833 4.34744 1.72667 5.15813 1.72667 6.09354C1.72667 7.02895 1.78833 7.83964 2.035 8.52561C2.28167 9.14922 2.65167 9.77283 3.02167 10.2094C3.45333 10.6459 3.94667 10.9577 4.50167 11.1448C5.44995 11.494 6.47776 11.5589 7.46167 11.3318C8.30327 11.0899 9.08213 10.6641 9.74333 10.0846V10.147L9.62 11.1448L9.18833 11.4566L8.38667 11.706C7.66067 11.9044 6.91705 12.0298 6.16667 12.0802C5.30333 12.0802 4.50167 11.9555 3.7 11.6437C2.98234 11.4107 2.32359 11.0221 1.76974 10.5051C1.2159 9.98815 0.780293 9.35515 0.493333 8.65033C0.123333 7.83964 0 6.90423 0 6.09354C0 5.09577 0.123333 4.22272 0.431667 3.53675C0.720212 2.79791 1.16928 2.13409 1.74567 1.59439C2.32207 1.05468 3.01104 0.652889 3.76167 0.418708C5.79022 -0.248308 7.9932 -0.114642 9.92833 0.792873L9.68167 1.41648L9.55833 2.10245H9.49667ZM20.905 16.2584C21.275 16.2584 21.645 16.3207 21.8917 16.4454L21.9533 16.5702L22.015 17.3808C21.7067 16.7572 21.275 16.4454 20.72 16.4454C19.9183 16.4454 19.4867 17.069 19.4867 17.9421C19.4867 19.0022 20.1033 19.8129 20.8433 19.8129C21.3367 19.8129 21.7067 19.5011 22.0767 18.8775L22.015 19.6258C22.015 19.7506 22.015 19.7506 21.8917 19.7506C21.5833 19.8753 21.2133 19.9376 20.905 19.9376C19.425 19.9376 18.8083 18.9399 18.8083 18.0668C18.8083 17.0067 19.8567 16.2584 20.905 16.2584ZM28.1817 16.3831H28.7983C28.86 16.3831 28.9217 16.3831 29.045 16.6325L31.0183 18.8775V17.069C31.0183 16.6949 30.8333 16.4454 30.5867 16.4454V16.2584H31.6967V16.3207C31.3883 16.3207 31.2033 16.6325 31.2033 17.0067V20H31.1417L28.49 16.882V19.1269C28.49 19.5011 28.675 19.7506 28.9217 19.7506V19.8129H27.8117C27.75 19.8129 27.75 19.8129 27.8117 19.8129C28.12 19.8129 28.305 19.5011 28.305 19.1269V16.6949C28.0583 16.4454 27.8733 16.3207 27.6883 16.3207H28.1817V16.3831ZM34.5333 16.2584C34.8417 16.2584 35.2733 16.3207 35.4583 16.4454C35.5817 16.4454 35.5817 16.4454 35.5817 16.5702L35.6433 17.3808H35.5817C35.335 16.7572 34.9033 16.4454 34.3483 16.4454C33.5467 16.4454 33.115 17.069 33.115 17.9421C33.115 19.0022 33.7317 19.8129 34.4717 19.8129C34.965 19.8129 35.335 19.5011 35.6433 18.8775V19.6258C35.6433 19.7506 35.6433 19.7506 35.52 19.7506C35.15 19.8753 34.8417 19.9376 34.4717 19.9376C32.9917 19.9376 32.4367 18.9399 32.4367 18.0668C32.4367 17.0067 33.4233 16.2584 34.5333 16.2584ZM39.96 16.3831H42.365V17.1314C42.2417 16.6949 41.9333 16.5078 41.5017 16.5078H41.3167C41.07 16.5078 40.9467 16.6325 40.9467 16.8196V17.9421H41.44C41.8717 17.9421 42.1183 17.8174 42.1183 17.5679H42.18V18.6281C42.18 18.3163 41.8717 18.1292 41.44 18.1292H40.9467V19.3764C40.9467 19.6258 41.07 19.7506 41.255 19.7506H41.44C42.0567 19.7506 42.365 19.5011 42.55 19.0022V19.8129L42.4267 19.8753H39.96C40.2683 19.8753 40.33 19.7506 40.33 19.4388V16.8196C40.33 16.5078 40.33 16.3831 39.96 16.3831ZM44.2767 19.4388V16.8196C44.2767 16.5078 44.215 16.3831 43.845 16.3831H45.325C46.065 16.3831 46.435 16.5702 46.435 17.0067C46.435 17.3808 46.1883 17.755 45.8183 17.9421C46.7433 19.314 47.175 19.8129 47.6683 19.8129V19.8753H46.62C46.4967 19.8753 46.0033 19.2517 45.3867 18.1292H44.8933V19.3764C44.8933 19.7506 44.955 19.8129 45.325 19.8129V19.8753H43.845C44.215 19.8753 44.2767 19.7506 44.2767 19.4388ZM44.8933 17.9421H45.2633C45.6333 17.9421 45.8183 17.8174 45.8183 17.3185C45.8183 16.5702 45.5717 16.4454 45.2633 16.4454C45.0167 16.4454 44.8933 16.5702 44.8933 16.8196V17.9421ZM52.4783 16.3831H54.8833L54.945 17.1314H54.8833C54.76 16.6949 54.4517 16.5078 54.02 16.5078H53.835C53.5883 16.5078 53.5267 16.6325 53.5267 16.8196V17.9421H53.9583C54.4517 17.9421 54.6367 17.8174 54.6367 17.5679H54.6983V18.6281C54.6983 18.3163 54.4517 18.1292 53.9583 18.1292H53.65V19.3764C53.65 19.6258 53.65 19.7506 53.8967 19.7506H54.0817C54.6983 19.7506 55.0067 19.5011 55.1917 19.0022V19.8129L55.13 19.8753H52.6017C52.91 19.8753 52.9717 19.7506 52.9717 19.4388V16.8196C52.9717 16.5078 52.9717 16.3831 52.6017 16.3831H52.4783Z" fill="white"/>
</svg>
