<svg width="20" height="37" viewBox="0 0 20 37" fill="none" xmlns="http://www.w3.org/2000/svg">
<path d="M17.942 29.1227C17.942 31.4459 17.4325 33.7604 16.4048 35.859C16.3011 36.0749 16.042 36.1612 15.8261 36.0576C15.6102 35.954 15.5239 35.6949 15.6275 35.479C17.7088 31.2559 17.5188 26.0827 15.2821 21.9805C14.8416 23.5782 14.0125 25.0378 12.648 26.1259C11.2748 27.2141 9.41804 27.715 7.55261 27.4991C5.78218 27.2918 4.25357 26.4714 3.25177 25.1932C2.18087 23.8287 1.80951 21.9114 2.24996 20.0546C2.67314 18.2842 3.7613 16.8765 5.2381 16.1856C8.51987 14.6484 12.4925 16.7124 14.7121 19.5451C14.738 19.5797 14.7725 19.6228 14.7984 19.6574C14.9107 17.9474 14.643 16.2115 14.2025 14.7434C12.2507 8.2489 6.80126 2.79943 0.306805 0.839008C0.0822628 0.769917 -0.0559171 0.528103 0.0218091 0.303562C0.090899 0.0790214 0.332714 -0.0505257 0.557256 0.0185661C7.31944 2.05672 12.9934 7.73937 15.0316 14.5015C15.5843 16.3411 15.8607 18.6038 15.5498 20.7369C17.1302 23.2328 17.9507 26.1864 17.9507 29.1313L17.942 29.1227ZM2.92359 21.5833C2.92359 22.7232 3.26904 23.8114 3.92539 24.6491C4.78038 25.7459 6.11036 26.4455 7.64761 26.6268C9.2885 26.8168 10.9121 26.385 12.1039 25.435C13.5462 24.2864 14.3234 22.6628 14.6343 20.9096C14.4443 20.616 14.2371 20.3396 14.0212 20.0633C12.0089 17.4983 8.46806 15.607 5.59219 16.9542C4.3572 17.5329 3.44176 18.7247 3.07904 20.236C2.97541 20.6851 2.92359 21.1342 2.92359 21.5833Z" fill="black"/>
<path d="M19.633 35.5654C19.633 35.5654 19.633 35.6172 19.633 35.6431C19.5898 35.8763 19.3653 36.0317 19.1321 35.9886C18.0525 35.7899 16.8694 36.1354 16.0662 36.8867C15.9367 37.0076 15.738 37.0335 15.5739 36.9558C15.4099 36.8695 15.3149 36.6967 15.3408 36.5154C15.4962 35.2804 14.8312 34.054 14.2353 33.2509C14.0971 33.0609 14.1317 32.7845 14.3303 32.6463C14.5203 32.5081 14.7967 32.5427 14.9349 32.7413C15.4789 33.484 16.0921 34.5463 16.213 35.7122C17.1285 35.1681 18.2425 34.9522 19.2875 35.1422C19.4948 35.1767 19.6416 35.3581 19.6416 35.5654L19.633 35.5654Z" fill="black"/>
</svg>
